<svg xmlns="http://www.w3.org/2000/svg" xmlns:xlink="http://www.w3.org/1999/xlink" viewBox="0 0 534.34 600.36"><defs><style>.cls-1,.cls-2,.cls-4,.cls-97{fill:none;}.cls-2{clip-rule:evenodd;}.cls-3{clip-path:url(#clip-path);}.cls-4{stroke:#121633;stroke-width:2px;}.cls-4,.cls-97{stroke-miterlimit:10;}.cls-5{clip-path:url(#clip-path-2);}.cls-6{fill:#9200ff;}.cls-7{clip-path:url(#clip-path-4);}.cls-8{fill:#fff;}.cls-9{clip-path:url(#clip-path-6);}.cls-10{fill:#9c73ff;}.cls-11{clip-path:url(#clip-path-8);}.cls-12{clip-path:url(#clip-path-10);}.cls-13{clip-path:url(#clip-path-12);}.cls-14{clip-path:url(#clip-path-14);}.cls-15,.cls-63,.cls-67{fill:#7579c0;}.cls-16{clip-path:url(#clip-path-16);}.cls-17{clip-path:url(#clip-path-18);}.cls-18{clip-path:url(#clip-path-20);}.cls-19{clip-path:url(#clip-path-22);}.cls-20{fill:#121633;}.cls-21{clip-path:url(#clip-path-24);}.cls-22{clip-path:url(#clip-path-26);}.cls-23{clip-path:url(#clip-path-28);}.cls-24{clip-path:url(#clip-path-30);}.cls-25{clip-path:url(#clip-path-32);}.cls-26{clip-path:url(#clip-path-34);}.cls-27{clip-path:url(#clip-path-36);}.cls-28{clip-path:url(#clip-path-38);}.cls-29{clip-path:url(#clip-path-40);}.cls-30{clip-path:url(#clip-path-42);}.cls-31{clip-path:url(#clip-path-44);}.cls-32{clip-path:url(#clip-path-46);}.cls-33{clip-path:url(#clip-path-48);}.cls-34{clip-path:url(#clip-path-50);}.cls-35{clip-path:url(#clip-path-52);}.cls-36{clip-path:url(#clip-path-54);}.cls-37{clip-path:url(#clip-path-56);}.cls-38{clip-path:url(#clip-path-58);}.cls-39{clip-path:url(#clip-path-60);}.cls-40{clip-path:url(#clip-path-62);}.cls-41{clip-path:url(#clip-path-64);}.cls-42{clip-path:url(#clip-path-66);}.cls-43{clip-path:url(#clip-path-68);}.cls-44{clip-path:url(#clip-path-70);}.cls-45{clip-path:url(#clip-path-72);}.cls-46{clip-path:url(#clip-path-74);}.cls-47{clip-path:url(#clip-path-76);}.cls-48{clip-path:url(#clip-path-78);}.cls-49{clip-path:url(#clip-path-80);}.cls-50{clip-path:url(#clip-path-82);}.cls-51{clip-path:url(#clip-path-84);}.cls-52{clip-path:url(#clip-path-86);}.cls-53{fill:#00ffc3;}.cls-54{clip-path:url(#clip-path-88);}.cls-55{fill:#edf0f9;}.cls-56{clip-path:url(#clip-path-90);}.cls-57{clip-path:url(#clip-path-92);}.cls-58{fill:#feffff;}.cls-59{clip-path:url(#clip-path-94);}.cls-60{fill:#4b4e85;}.cls-61{clip-path:url(#clip-path-96);}.cls-62{clip-path:url(#clip-path-98);}.cls-63{opacity:0.3;}.cls-64{clip-path:url(#clip-path-100);}.cls-65{clip-path:url(#clip-path-102);}.cls-66{clip-path:url(#clip-path-104);}.cls-67{opacity:0.1;}.cls-68{opacity:0.8;}.cls-151,.cls-68{isolation:isolate;}.cls-69{clip-path:url(#clip-path-107);}.cls-70{clip-path:url(#clip-path-108);}.cls-71,.cls-76{fill:#fffeff;}.cls-72{clip-path:url(#clip-path-110);}.cls-73{clip-path:url(#clip-path-112);}.cls-74{clip-path:url(#clip-path-114);}.cls-75{clip-path:url(#clip-path-116);}.cls-76{opacity:0.9;}.cls-77{clip-path:url(#clip-path-118);}.cls-78{clip-path:url(#clip-path-120);}.cls-79{clip-path:url(#clip-path-122);}.cls-80{clip-path:url(#clip-path-124);}.cls-81{clip-path:url(#clip-path-126);}.cls-82{fill:#2b6eff;}.cls-83{clip-path:url(#clip-path-128);}.cls-84{fill:#255cd3;}.cls-85{clip-path:url(#clip-path-130);}.cls-86{clip-path:url(#clip-path-132);}.cls-87{fill:#3eb4ff;}.cls-88{clip-path:url(#clip-path-134);}.cls-89{clip-path:url(#clip-path-136);}.cls-90{clip-path:url(#clip-path-138);}.cls-91{clip-path:url(#clip-path-140);}.cls-92{fill:#5465c1;}.cls-93{clip-path:url(#clip-path-142);}.cls-94{clip-path:url(#clip-path-144);}.cls-95{clip-path:url(#clip-path-146);}.cls-96{clip-path:url(#clip-path-148);}.cls-97{stroke:#fffeff;stroke-width:2.25px;}.cls-98{clip-path:url(#clip-path-151);}.cls-99{clip-path:url(#clip-path-153);}.cls-100{clip-path:url(#clip-path-155);}.cls-101{clip-path:url(#clip-path-158);}.cls-102{fill:#fdd786;}.cls-103{clip-path:url(#clip-path-160);}.cls-104{clip-path:url(#clip-path-162);}.cls-105{clip-path:url(#clip-path-164);}.cls-106{clip-path:url(#clip-path-166);}.cls-107{clip-path:url(#clip-path-168);}.cls-108{clip-path:url(#clip-path-170);}.cls-109{clip-path:url(#clip-path-172);}.cls-110{clip-path:url(#clip-path-174);}.cls-111{clip-path:url(#clip-path-176);}.cls-112{clip-path:url(#clip-path-178);}.cls-113{clip-path:url(#clip-path-180);}.cls-114{clip-path:url(#clip-path-182);}.cls-115{clip-path:url(#clip-path-184);}.cls-116{clip-path:url(#clip-path-186);}.cls-117{clip-path:url(#clip-path-188);}.cls-118{clip-path:url(#clip-path-190);}.cls-119{fill:#00dfff;}.cls-120{clip-path:url(#clip-path-192);}.cls-121{fill:#007bff;}.cls-122{clip-path:url(#clip-path-194);}.cls-123{clip-path:url(#clip-path-196);}.cls-124{clip-path:url(#clip-path-198);}.cls-125{clip-path:url(#clip-path-200);}.cls-126{clip-path:url(#clip-path-202);}.cls-127{fill:#ffbf51;}.cls-128{clip-path:url(#clip-path-204);}.cls-129{clip-path:url(#clip-path-206);}.cls-130{clip-path:url(#clip-path-208);}.cls-131{clip-path:url(#clip-path-210);}.cls-132{clip-path:url(#clip-path-212);}.cls-133{clip-path:url(#clip-path-214);}.cls-134{clip-path:url(#clip-path-216);}.cls-135{clip-path:url(#clip-path-218);}.cls-136{fill:#7375a8;}.cls-137{clip-path:url(#clip-path-220);}.cls-138{clip-path:url(#clip-path-222);}.cls-139{clip-path:url(#clip-path-224);}.cls-140{clip-path:url(#clip-path-226);}.cls-141{clip-path:url(#clip-path-228);}.cls-142{clip-path:url(#clip-path-230);}.cls-143{clip-path:url(#clip-path-232);}.cls-144{clip-path:url(#clip-path-234);}.cls-145{clip-path:url(#clip-path-236);}.cls-146{clip-path:url(#clip-path-238);}.cls-147{clip-path:url(#clip-path-240);}.cls-148{clip-path:url(#clip-path-242);}.cls-149{clip-path:url(#clip-path-244);}.cls-150{clip-path:url(#clip-path-246);}.cls-152{clip-path:url(#clip-path-248);}.cls-153{clip-path:url(#clip-path-249);}.cls-154{clip-path:url(#clip-path-250);}.cls-155{fill:#0d2155;}.cls-156{clip-path:url(#clip-path-251);}.cls-157{fill:#e7f1f6;}.cls-158{clip-path:url(#clip-path-253);}.cls-159{fill:#fabac2;}.cls-160{clip-path:url(#clip-path-255);}.cls-161{clip-path:url(#clip-path-257);}.cls-162{clip-path:url(#clip-path-259);}.cls-163{clip-path:url(#clip-path-261);}.cls-164{clip-path:url(#clip-path-263);}.cls-165{clip-path:url(#clip-path-265);}.cls-166{clip-path:url(#clip-path-266);}.cls-167{clip-path:url(#clip-path-267);}.cls-168{clip-path:url(#clip-path-268);}.cls-169{fill:#6f789e;}.cls-170{clip-path:url(#clip-path-270);}.cls-171{clip-path:url(#clip-path-272);}.cls-172{clip-path:url(#clip-path-274);}.cls-173{fill:#e64379;}.cls-174{clip-path:url(#clip-path-276);}.cls-175{clip-path:url(#clip-path-278);}.cls-176{fill:#fd5687;}.cls-177{clip-path:url(#clip-path-280);}.cls-178{clip-path:url(#clip-path-282);}.cls-179{fill:#faabb2;}.cls-180{clip-path:url(#clip-path-284);}.cls-181{fill:#9fc0f0;}.cls-182{clip-path:url(#clip-path-286);}.cls-183{fill:#c6e2fb;}.cls-184{clip-path:url(#clip-path-288);}.cls-185{fill:#2e3b70;}.cls-186{clip-path:url(#clip-path-290);}.cls-187{fill:#a7cbf0;}.cls-188{clip-path:url(#clip-path-292);}.cls-189{clip-path:url(#clip-path-294);}.cls-190{fill:#b56f7c;}.cls-191{clip-path:url(#clip-path-296);}.cls-192{clip-path:url(#clip-path-298);}.cls-193{clip-path:url(#clip-path-300);}.cls-194{clip-path:url(#clip-path-301);}.cls-195{clip-path:url(#clip-path-302);}.cls-196{clip-path:url(#clip-path-303);}.cls-197{clip-path:url(#clip-path-305);}.cls-198{fill:#b0b5d1;}.cls-199{clip-path:url(#clip-path-307);}</style><clipPath id="clip-path" transform="translate(-333.69 -150)"><rect class="cls-1" width="1200" height="900"/></clipPath><clipPath id="clip-path-2" transform="translate(-333.69 -150)"><polygon class="cls-2" points="434.61 244.67 429.19 247.83 434.61 258.39 434.61 266.84 434.61 370.89 516.59 418.22 521.18 427.16 526.6 424 526.6 319.94 526.6 297.78 434.61 244.67"/></clipPath><clipPath id="clip-path-4" transform="translate(-333.69 -150)"><polygon class="cls-2" points="429.19 374.05 521.18 427.16 521.18 323.11 429.19 270 429.19 374.05"/></clipPath><clipPath id="clip-path-6" transform="translate(-333.69 -150)"><polygon class="cls-2" points="429.19 247.83 429.19 270 521.18 323.11 521.18 300.94 429.19 247.83"/></clipPath><clipPath id="clip-path-8" transform="translate(-333.69 -150)"><path class="cls-2" d="M439.72,265c0,1.66-1,2.42-2.25,1.7a5.38,5.38,0,0,1-2.24-4.29c0-1.66,1-2.42,2.24-1.7a5.39,5.39,0,0,1,2.25,4.29"/></clipPath><clipPath id="clip-path-10" transform="translate(-333.69 -150)"><path class="cls-2" d="M446.07,268.66c0,1.65-1,2.41-2.25,1.69a5.36,5.36,0,0,1-2.25-4.29c0-1.65,1-2.41,2.25-1.7a5.4,5.4,0,0,1,2.25,4.3"/></clipPath><clipPath id="clip-path-12" transform="translate(-333.69 -150)"><path class="cls-2" d="M452.41,272.32c0,1.65-1,2.41-2.24,1.7a5.39,5.39,0,0,1-2.25-4.29c0-1.66,1-2.42,2.25-1.7a5.37,5.37,0,0,1,2.24,4.29"/></clipPath><clipPath id="clip-path-14" transform="translate(-333.69 -150)"><polygon class="cls-2" points="455.06 310.12 445.79 304.76 445.79 292.4 455.06 297.76 455.06 310.12"/></clipPath><clipPath id="clip-path-16" transform="translate(-333.69 -150)"><polygon class="cls-2" points="504.58 338.71 495.31 333.36 495.31 321 504.58 326.35 504.58 338.71"/></clipPath><clipPath id="clip-path-18" transform="translate(-333.69 -150)"><polygon class="cls-2" points="455.06 376.15 445.79 370.8 445.79 358.44 455.06 363.8 455.06 376.15"/></clipPath><clipPath id="clip-path-20" transform="translate(-333.69 -150)"><polygon class="cls-2" points="504.58 404.75 495.31 399.4 495.31 387.04 504.58 392.39 504.58 404.75"/></clipPath><clipPath id="clip-path-22" transform="translate(-333.69 -150)"><polygon class="cls-2" points="460.04 307.86 456.63 305.89 456.63 303.8 460.04 305.77 460.04 307.86"/></clipPath><clipPath id="clip-path-24" transform="translate(-333.69 -150)"><polygon class="cls-2" points="464.85 310.64 461.45 308.67 461.45 306.58 464.85 308.55 464.85 310.64"/></clipPath><clipPath id="clip-path-26" transform="translate(-333.69 -150)"><polygon class="cls-2" points="469.67 313.42 466.26 311.45 466.26 309.36 469.67 311.33 469.67 313.42"/></clipPath><clipPath id="clip-path-28" transform="translate(-333.69 -150)"><polygon class="cls-2" points="474.48 316.2 471.08 314.23 471.08 312.14 474.48 314.11 474.48 316.2"/></clipPath><clipPath id="clip-path-30" transform="translate(-333.69 -150)"><polygon class="cls-2" points="479.29 318.98 475.89 317.01 475.89 314.92 479.29 316.88 479.29 318.98"/></clipPath><clipPath id="clip-path-32" transform="translate(-333.69 -150)"><polygon class="cls-2" points="484.11 321.75 480.7 319.79 480.7 317.7 484.11 319.67 484.11 321.75"/></clipPath><clipPath id="clip-path-34" transform="translate(-333.69 -150)"><polygon class="cls-2" points="488.92 324.53 485.52 322.57 485.52 320.48 488.92 322.44 488.92 324.53"/></clipPath><clipPath id="clip-path-36" transform="translate(-333.69 -150)"><polygon class="cls-2" points="493.74 327.31 490.33 325.35 490.33 323.26 493.74 325.22 493.74 327.31"/></clipPath><clipPath id="clip-path-38" transform="translate(-333.69 -150)"><polygon class="cls-2" points="460.04 373.9 456.63 371.93 456.63 369.84 460.04 371.81 460.04 373.9"/></clipPath><clipPath id="clip-path-40" transform="translate(-333.69 -150)"><polygon class="cls-2" points="464.85 376.68 461.45 374.71 461.45 372.62 464.85 374.59 464.85 376.68"/></clipPath><clipPath id="clip-path-42" transform="translate(-333.69 -150)"><polygon class="cls-2" points="469.67 379.46 466.26 377.49 466.26 375.4 469.67 377.37 469.67 379.46"/></clipPath><clipPath id="clip-path-44" transform="translate(-333.69 -150)"><polygon class="cls-2" points="474.48 382.24 471.08 380.27 471.08 378.18 474.48 380.14 474.48 382.24"/></clipPath><clipPath id="clip-path-46" transform="translate(-333.69 -150)"><polygon class="cls-2" points="479.29 385.01 475.89 383.05 475.89 380.96 479.29 382.92 479.29 385.01"/></clipPath><clipPath id="clip-path-48" transform="translate(-333.69 -150)"><polygon class="cls-2" points="484.11 387.79 480.7 385.83 480.7 383.74 484.11 385.7 484.11 387.79"/></clipPath><clipPath id="clip-path-50" transform="translate(-333.69 -150)"><polygon class="cls-2" points="488.92 390.57 485.52 388.61 485.52 386.52 488.92 388.48 488.92 390.57"/></clipPath><clipPath id="clip-path-52" transform="translate(-333.69 -150)"><polygon class="cls-2" points="493.74 393.35 490.33 391.39 490.33 389.3 493.74 391.26 493.74 393.35"/></clipPath><clipPath id="clip-path-54" transform="translate(-333.69 -150)"><polygon class="cls-2" points="449.64 313.63 449.64 309.09 451.2 310 451.2 314.54 449.64 313.63"/></clipPath><clipPath id="clip-path-56" transform="translate(-333.69 -150)"><polygon class="cls-2" points="449.64 320.05 449.64 315.51 451.2 316.42 451.2 320.95 449.64 320.05"/></clipPath><clipPath id="clip-path-58" transform="translate(-333.69 -150)"><polygon class="cls-2" points="449.64 326.47 449.64 321.93 451.2 322.83 451.2 327.37 449.64 326.47"/></clipPath><clipPath id="clip-path-60" transform="translate(-333.69 -150)"><polygon class="cls-2" points="449.64 332.89 449.64 328.35 451.2 329.25 451.2 333.79 449.64 332.89"/></clipPath><clipPath id="clip-path-62" transform="translate(-333.69 -150)"><polygon class="cls-2" points="449.64 339.31 449.64 334.77 451.2 335.67 451.2 340.21 449.64 339.31"/></clipPath><clipPath id="clip-path-64" transform="translate(-333.69 -150)"><polygon class="cls-2" points="449.64 345.73 449.64 341.19 451.2 342.09 451.2 346.63 449.64 345.73"/></clipPath><clipPath id="clip-path-66" transform="translate(-333.69 -150)"><polygon class="cls-2" points="449.64 352.14 449.64 347.61 451.2 348.51 451.2 353.05 449.64 352.14"/></clipPath><clipPath id="clip-path-68" transform="translate(-333.69 -150)"><polygon class="cls-2" points="449.64 358.56 449.64 354.02 451.2 354.93 451.2 359.47 449.64 358.56"/></clipPath><clipPath id="clip-path-70" transform="translate(-333.69 -150)"><polygon class="cls-2" points="499.17 342.23 499.17 337.69 500.73 338.59 500.73 343.13 499.17 342.23"/></clipPath><clipPath id="clip-path-72" transform="translate(-333.69 -150)"><polygon class="cls-2" points="499.17 348.64 499.17 344.11 500.73 345.01 500.73 349.55 499.17 348.64"/></clipPath><clipPath id="clip-path-74" transform="translate(-333.69 -150)"><polygon class="cls-2" points="499.17 355.06 499.17 350.53 500.73 351.43 500.73 355.97 499.17 355.06"/></clipPath><clipPath id="clip-path-76" transform="translate(-333.69 -150)"><polygon class="cls-2" points="499.17 361.48 499.17 356.94 500.73 357.85 500.73 362.39 499.17 361.48"/></clipPath><clipPath id="clip-path-78" transform="translate(-333.69 -150)"><polygon class="cls-2" points="499.17 367.9 499.17 363.36 500.73 364.27 500.73 368.81 499.17 367.9"/></clipPath><clipPath id="clip-path-80" transform="translate(-333.69 -150)"><polygon class="cls-2" points="499.17 374.32 499.17 369.78 500.73 370.69 500.73 375.23 499.17 374.32"/></clipPath><clipPath id="clip-path-82" transform="translate(-333.69 -150)"><polygon class="cls-2" points="499.17 380.74 499.17 376.2 500.73 377.11 500.73 381.64 499.17 380.74"/></clipPath><clipPath id="clip-path-84" transform="translate(-333.69 -150)"><polygon class="cls-2" points="499.17 387.16 499.17 382.62 500.73 383.52 500.73 388.06 499.17 387.16"/></clipPath><clipPath id="clip-path-86" transform="translate(-333.69 -150)"><path class="cls-2" d="M492.82,358.76c0,13-7.89,19-17.63,13.34s-17.64-20.72-17.64-33.71,7.89-18.95,17.64-13.33,17.63,20.71,17.63,33.7"/></clipPath><clipPath id="clip-path-88" transform="translate(-333.69 -150)"><path class="cls-2" d="M762.13,333.64,565,219.82a4.54,4.54,0,0,0-4.45-.45h0l-2.41,1.07.87.36a8,8,0,0,0-1.07,4.36V402.82c0,5.18,3.18,11.26,7.06,13.5L762.13,530.14c3.88,2.25,7.06-.16,7.06-5.34V347.14c0-5.18-3.18-11.26-7.06-13.5"/></clipPath><clipPath id="clip-path-90" transform="translate(-333.69 -150)"><path class="cls-2" d="M759.39,531.37,562.24,417.54c-3.88-2.24-7.06-8.31-7.06-13.49V226.38c0-5.18,3.18-7.59,7.06-5.34L759.39,334.86c3.88,2.24,7.06,8.32,7.06,13.5V526c0,5.18-3.18,7.58-7.06,5.34"/></clipPath><clipPath id="clip-path-92" transform="translate(-333.69 -150)"><path class="cls-2" d="M662.83,285.35c0,1.48-.9,2.17-2,1.52a4.83,4.83,0,0,1-2-3.85c0-1.49.9-2.17,2-1.53a4.83,4.83,0,0,1,2,3.86"/></clipPath><clipPath id="clip-path-94" transform="translate(-333.69 -150)"><path class="cls-2" d="M764.06,532.12l-5.46-.34L734.74,518,591,435l-26.69-15.41c-3.89-2.24-10.74-2-15.22.63L395.2,509.05l-.25.16-3.46-.22v5h0a4.5,4.5,0,0,0,2.62,3.81l83.78,48.38,29.58,17.07,83.79,48.38c3.88,2.24,10.73,2,15.22-.64L760.34,542.2c2.46-1.42,3.72-3.25,3.71-5h0Z"/></clipPath><clipPath id="clip-path-96" transform="translate(-333.69 -150)"><path class="cls-2" d="M761.43,528.13l-26.69-15.41-5.06,2.92a4.62,4.62,0,0,1-4.15.17L585.62,435c-1.06-.61-.93-1.69.3-2.39l5.06-2.92-26.69-15.41c-3.89-2.25-10.74-2-15.22.63L395.2,503.77c-4.48,2.59-5,6.55-1.09,8.79l83.78,48.37a4.56,4.56,0,0,1,3.43.15L507.21,576a1.15,1.15,0,0,1,.26,2l83.79,48.37c3.88,2.24,10.73,2,15.22-.63l153.86-88.83c4.49-2.59,5-6.55,1.09-8.79"/></clipPath><clipPath id="clip-path-98" transform="translate(-333.69 -150)"><path class="cls-2" d="M540.83,587.75,461,541.67c-.93-.53-.82-1.48.26-2.1l55.51-32.05a4,4,0,0,1,3.64-.15l79.81,46.08c.94.53.82,1.48-.26,2.1l-55.5,32.05a4.07,4.07,0,0,1-3.65.15"/></clipPath><clipPath id="clip-path-100" transform="translate(-333.69 -150)"><path class="cls-2" d="M585.62,435l139.91,80.78a4.62,4.62,0,0,0,4.15-.17l5.06-2.92L591,429.72l-5.06,2.92c-1.23.7-1.36,1.78-.3,2.39"/></clipPath><clipPath id="clip-path-102" transform="translate(-333.69 -150)"><path class="cls-2" d="M507.21,576l-25.89-14.95a4.56,4.56,0,0,0-3.43-.15L507.47,578a1.15,1.15,0,0,0-.26-2"/></clipPath><clipPath id="clip-path-104" transform="translate(-333.69 -150)"><path class="cls-2" d="M657.57,575.08,483,474.27c-1-.56-.86-1.56.28-2.21l75-43.3a4.29,4.29,0,0,1,3.83-.16l174.6,100.81c1,.56.86,1.56-.27,2.21l-75,43.3a4.29,4.29,0,0,1-3.83.16"/></clipPath><clipPath id="clip-path-107" transform="translate(-333.69 -150)"><rect class="cls-1" x="564" y="234" width="193" height="285"/></clipPath><clipPath id="clip-path-108" transform="translate(-333.69 -150)"><polygon class="cls-2" points="564.88 234.28 564.88 298.65 592.76 250.37 564.88 234.28"/></clipPath><clipPath id="clip-path-110" transform="translate(-333.69 -150)"><rect class="cls-1" x="563.52" y="349.8" width="149.89" height="26.99" transform="translate(4.6 734.57) rotate(-60)"/></clipPath><clipPath id="clip-path-112" transform="translate(-333.69 -150)"><polygon class="cls-2" points="756.75 345.05 723.81 326.03 648.87 455.84 756.75 518.13 756.75 345.05"/></clipPath><clipPath id="clip-path-114" transform="translate(-333.69 -150)"><polygon class="cls-2" points="592.76 250.37 564.88 298.65 564.88 407.36 589.3 421.46 664.25 291.65 592.76 250.37"/></clipPath><clipPath id="clip-path-116" transform="translate(-333.69 -150)"><rect class="cls-1" x="593.3" y="359.6" width="149.89" height="41.78" transform="translate(4.6 768.96) rotate(-60)"/></clipPath><clipPath id="clip-path-118" transform="translate(-333.69 -150)"><path class="cls-2" d="M634.28,355.15c-2.37-1.37-4.3.08-4.3,3.25s1.93,6.85,4.3,8.22,4.3-.09,4.3-3.25-1.92-6.85-4.3-8.22"/></clipPath><clipPath id="clip-path-120" transform="translate(-333.69 -150)"><path class="cls-2" d="M652,365.36c-2.38-1.37-4.3.09-4.3,3.25s1.92,6.85,4.3,8.22,4.3-.08,4.3-3.25-1.93-6.85-4.3-8.22"/></clipPath><clipPath id="clip-path-122" transform="translate(-333.69 -150)"><path class="cls-2" d="M669.66,375.57c-2.38-1.37-4.3.09-4.3,3.25s1.92,6.85,4.3,8.22,4.3-.08,4.3-3.25-1.93-6.85-4.3-8.22"/></clipPath><clipPath id="clip-path-124" transform="translate(-333.69 -150)"><path class="cls-2" d="M687.35,385.79c-2.38-1.38-4.3.08-4.3,3.25s1.92,6.84,4.3,8.21,4.3-.08,4.3-3.25-1.93-6.84-4.3-8.21"/></clipPath><clipPath id="clip-path-126" transform="translate(-333.69 -150)"><path class="cls-2" d="M560.41,399V502.55c0,14.28,20.18,25.86,45.07,25.86s45.08-11.58,45.08-25.86V399Z"/></clipPath><clipPath id="clip-path-128" transform="translate(-333.69 -150)"><path class="cls-2" d="M650.55,399c0,14.29-20.18,25.87-45.07,25.87S560.41,413.26,560.41,399s20.18-25.87,45.07-25.87,45.07,11.58,45.07,25.87"/></clipPath><clipPath id="clip-path-130" transform="translate(-333.69 -150)"><path class="cls-2" d="M620.64,250.56l-10.37-6-4.36,2.56v-5.07l-10.38-6-5.21,3.06,2.35,13.41c-7.49,28.22-24.75,34-24.75,34l-5.21,3,15.09,67.54.38.44,3.44,23.78,26.47,15.28,10.12,5.85L629.34,415l5.21-3.06,13.7-79S624.59,297.67,620.64,250.56Zm-14.73,1.29,4.36,21.66V329A25.43,25.43,0,0,1,618,344l-.72,7.71c-1.59,3.71-5.09,4.92-9.15,2.57-5.56-3.21-10.07-11.82-10.07-19.24a11.33,11.33,0,0,1,1.6-6.31l1.08.82,5.21-3.05Z"/></clipPath><clipPath id="clip-path-132" transform="translate(-333.69 -150)"><path class="cls-2" d="M592.81,338.11c0-6.42,3.37-9.82,7.89-8.55V245.1l-10.38-6c-4,42.56-27.61,50.48-27.61,50.48l13.7,94.82,26.46,15.28V357.34c-5.56-3.21-10.06-11.82-10.06-19.23"/></clipPath><clipPath id="clip-path-134" transform="translate(-333.69 -150)"><path class="cls-2" d="M615.43,253.61l-10.38-6v84.46a25.2,25.2,0,0,1,7.89,17.65c0,7.41-4.51,10.82-10.06,7.61v42.35L629.34,415,643,336s-23.66-35.25-27.61-82.36"/></clipPath><clipPath id="clip-path-136" transform="translate(-333.69 -150)"><polygon class="cls-2" points="671.88 314.73 652.32 303.43 652.32 280.73 671.88 292.03 671.88 314.73"/></clipPath><clipPath id="clip-path-138" transform="translate(-333.69 -150)"><polygon class="cls-2" points="652.32 280.73 669.94 270.55 689.5 281.85 671.88 292.03 652.32 280.73"/></clipPath><clipPath id="clip-path-140" transform="translate(-333.69 -150)"><polygon class="cls-2" points="671.88 314.73 689.5 304.55 689.5 281.85 671.88 292.03 671.88 314.73"/></clipPath><clipPath id="clip-path-142" transform="translate(-333.69 -150)"><polygon class="cls-2" points="541.02 239.18 521.46 227.88 521.46 205.18 541.02 216.47 541.02 239.18"/></clipPath><clipPath id="clip-path-144" transform="translate(-333.69 -150)"><polygon class="cls-2" points="521.46 205.18 539.08 195 558.64 206.29 541.02 216.47 521.46 205.18"/></clipPath><clipPath id="clip-path-146" transform="translate(-333.69 -150)"><polygon class="cls-2" points="541.02 239.18 558.64 229 558.64 206.29 541.02 216.47 541.02 239.18"/></clipPath><clipPath id="clip-path-148" transform="translate(-333.69 -150)"><polygon class="cls-2" points="624.07 213.4 604.51 202.11 604.51 176.03 624.07 187.32 624.07 213.4"/></clipPath><clipPath id="clip-path-151" transform="translate(-333.69 -150)"><polygon class="cls-2" points="606.45 220.2 586.89 208.91 586.89 186.21 606.45 197.5 606.45 220.2"/></clipPath><clipPath id="clip-path-153" transform="translate(-333.69 -150)"><polygon class="cls-2" points="586.89 186.21 604.51 176.03 624.07 187.32 606.45 197.5 586.89 186.21"/></clipPath><clipPath id="clip-path-155" transform="translate(-333.69 -150)"><polygon class="cls-2" points="606.45 220.2 624.07 210.02 624.07 187.32 606.45 197.5 606.45 220.2"/></clipPath><clipPath id="clip-path-158" transform="translate(-333.69 -150)"><path class="cls-2" d="M678.18,237.74a7,7,0,1,1-7-7.05,7,7,0,0,1,7,7.05"/></clipPath><clipPath id="clip-path-160" transform="translate(-333.69 -150)"><path class="cls-2" d="M547.1,162a7,7,0,1,1-7-7,7,7,0,0,1,7,7"/></clipPath><clipPath id="clip-path-162" transform="translate(-333.69 -150)"><path class="cls-2" d="M840.55,434.53,758.21,387c-3.38-2-6.48-2-8.82-.57h0l-4.32,2.47L746,391a17.32,17.32,0,0,0-1,6.05V563.73c0,9.7,5.95,21.09,13.23,25.29l91.58,52.87a12,12,0,0,0,3.15,1.31l.86,2,4.38-2.51.44-.26,0,0c2.67-1.69,4.36-5.38,4.36-10.55V477.48Z"/></clipPath><clipPath id="clip-path-164" transform="translate(-333.69 -150)"><path class="cls-2" d="M835.91,449.51V437.19l-82.34-47.53c-7.28-4.21-13.24.3-13.24,10V566.38c0,9.71,6,21.09,13.24,25.3l91.57,52.87c7.28,4.2,13.24-.3,13.24-10V480.13l-9.24-5.33c-7.28-4.2-13.23-15.58-13.23-25.29"/></clipPath><clipPath id="clip-path-166" transform="translate(-333.69 -150)"><path class="cls-2" d="M840.74,485.82l-45.08-26a4.26,4.26,0,0,1-1.78-3.4c0-1.31.8-1.91,1.78-1.35l45.08,26a4.29,4.29,0,0,1,1.78,3.4c0,1.31-.8,1.92-1.78,1.35"/></clipPath><clipPath id="clip-path-168" transform="translate(-333.69 -150)"><path class="cls-2" d="M840.74,523.84l-45.08-26a4.27,4.27,0,0,1-1.78-3.4c0-1.31.8-1.91,1.78-1.35l45.08,26a4.27,4.27,0,0,1,1.78,3.4c0,1.31-.8,1.92-1.78,1.35"/></clipPath><clipPath id="clip-path-170" transform="translate(-333.69 -150)"><path class="cls-2" d="M840.74,542.85,758,495.06a4.27,4.27,0,0,1-1.78-3.4c0-1.31.8-1.91,1.78-1.35l82.77,47.79a4.27,4.27,0,0,1,1.78,3.4c0,1.31-.8,1.92-1.78,1.35"/></clipPath><clipPath id="clip-path-172" transform="translate(-333.69 -150)"><path class="cls-2" d="M840.74,561.86,758,514.07a4.27,4.27,0,0,1-1.78-3.4c0-1.31.8-1.91,1.78-1.35l82.77,47.79a4.27,4.27,0,0,1,1.78,3.4c0,1.31-.8,1.92-1.78,1.35"/></clipPath><clipPath id="clip-path-174" transform="translate(-333.69 -150)"><path class="cls-2" d="M840.74,580.87,758,533.08a4.27,4.27,0,0,1-1.78-3.4c0-1.31.8-1.92,1.78-1.35l82.77,47.79a4.27,4.27,0,0,1,1.78,3.4c0,1.31-.8,1.92-1.78,1.35"/></clipPath><clipPath id="clip-path-176" transform="translate(-333.69 -150)"><path class="cls-2" d="M840.74,599.88,758,552.09a4.27,4.27,0,0,1-1.78-3.4c0-1.31.8-1.92,1.78-1.35l82.77,47.79a4.27,4.27,0,0,1,1.78,3.4c0,1.31-.8,1.92-1.78,1.35"/></clipPath><clipPath id="clip-path-178" transform="translate(-333.69 -150)"><path class="cls-2" d="M840.74,618.89,758,571.1a4.27,4.27,0,0,1-1.78-3.4c0-1.31.8-1.92,1.78-1.35l82.77,47.79a4.27,4.27,0,0,1,1.78,3.4c0,1.31-.8,1.92-1.78,1.35"/></clipPath><clipPath id="clip-path-180" transform="translate(-333.69 -150)"><path class="cls-2" d="M840.74,504.83l-45.08-26a4.26,4.26,0,0,1-1.78-3.4c0-1.31.8-1.91,1.78-1.35l45.08,26a4.29,4.29,0,0,1,1.78,3.4c0,1.31-.8,1.92-1.78,1.35"/></clipPath><clipPath id="clip-path-182" transform="translate(-333.69 -150)"><path class="cls-2" d="M835.91,449.51c0,9.71,6,21.09,13.23,25.29l9.24,5.33-22.47-42.94Z"/></clipPath><clipPath id="clip-path-184" transform="translate(-333.69 -150)"><polygon class="cls-2" points="823.66 713.67 798.87 699.36 768.29 681.71 737.71 664.05 707.13 646.4 676.54 628.75 629.31 656.02 627.45 655.47 627.45 657.1 658.03 674.75 688.62 692.4 719.2 710.06 749.78 727.71 780.37 745.37 829.46 717.02 829.46 715.39 823.66 713.67"/></clipPath><clipPath id="clip-path-186" transform="translate(-333.69 -150)"><polygon class="cls-2" points="658.03 673.12 627.45 655.47 676.54 627.12 707.13 644.77 658.03 673.12"/></clipPath><clipPath id="clip-path-188" transform="translate(-333.69 -150)"><polygon class="cls-2" points="688.62 690.78 658.03 673.12 707.13 644.77 737.71 662.43 688.62 690.78"/></clipPath><clipPath id="clip-path-190" transform="translate(-333.69 -150)"><polygon class="cls-2" points="719.2 708.43 688.62 690.78 737.71 662.43 768.29 680.08 719.2 708.43"/></clipPath><clipPath id="clip-path-192" transform="translate(-333.69 -150)"><polygon class="cls-2" points="749.78 726.08 719.2 708.43 768.29 680.08 798.87 697.74 749.78 726.08"/></clipPath><clipPath id="clip-path-194" transform="translate(-333.69 -150)"><polygon class="cls-2" points="780.37 743.74 749.78 726.08 798.87 697.74 829.46 715.39 780.37 743.74"/></clipPath><clipPath id="clip-path-196" transform="translate(-333.69 -150)"><polygon class="cls-2" points="784.98 656.41 782.58 621.18 735.9 626.07 689.22 630.95 648.78 635.19 642.54 634.21 642.54 635.84 645.06 672.72 691.74 667.83 738.41 662.94 785.09 658.06 785.09 656.43 784.98 656.41"/></clipPath><clipPath id="clip-path-198" transform="translate(-333.69 -150)"><polygon class="cls-2" points="691.74 666.2 645.06 671.09 642.54 634.22 689.22 629.33 691.74 666.2"/></clipPath><clipPath id="clip-path-200" transform="translate(-333.69 -150)"><polygon class="cls-2" points="738.41 661.32 691.74 666.2 689.22 629.33 735.9 624.44 738.41 661.32"/></clipPath><clipPath id="clip-path-202" transform="translate(-333.69 -150)"><polygon class="cls-2" points="785.09 656.43 738.41 661.32 735.9 624.44 782.58 619.55 785.09 656.43"/></clipPath><clipPath id="clip-path-204" transform="translate(-333.69 -150)"><path class="cls-2" d="M672.9,653.36c-3.58,2.07-9,2.29-12.09.5s-2.72-4.91.86-7,9-2.29,12.1-.5,2.72,4.91-.87,7"/></clipPath><clipPath id="clip-path-206" transform="translate(-333.69 -150)"><polygon class="cls-2" points="658.71 649.81 658.71 650.95 675.87 649.39 675.87 648.24 658.71 649.81"/></clipPath><clipPath id="clip-path-208" transform="translate(-333.69 -150)"><path class="cls-2" d="M672.9,652.21c-3.58,2.07-9,2.3-12.09.51s-2.72-4.92.86-7,9-2.29,12.1-.5,2.72,4.92-.87,7"/></clipPath><clipPath id="clip-path-210" transform="translate(-333.69 -150)"><path class="cls-2" d="M419.06,462.16V470a1.17,1.17,0,1,0,2.33,0v-7.88Z"/></clipPath><clipPath id="clip-path-212" transform="translate(-333.69 -150)"><path class="cls-2" d="M345.71,419.88v7.88a1.17,1.17,0,1,0,2.33,0v-7.88Z"/></clipPath><clipPath id="clip-path-214" transform="translate(-333.69 -150)"><path class="cls-2" d="M352.69,375.93l-2.55-1.42-.08,0h0a3.39,3.39,0,0,0-3.29.35c-2.89,1.66-5.24,6.14-5.24,10,0,2.17.75,3.67,1.91,4.28h0l2.74,1.53.91-2.06c2.74-1.81,4.91-6.09,4.91-9.8a9.22,9.22,0,0,0-.07-1.09Z"/></clipPath><clipPath id="clip-path-216" transform="translate(-333.69 -150)"><path class="cls-2" d="M354.73,380.28c0,3.86-2.35,8.34-5.24,10s-5.23-.1-5.23-3.95,2.34-8.34,5.23-10,5.24.11,5.24,4"/></clipPath><clipPath id="clip-path-218" transform="translate(-333.69 -150)"><path class="cls-2" d="M424.38,461.52l-32.72-94.44c1.55-1.4,2.49-3.87,2.49-7.19,0-7.14-4.34-15.43-9.69-18.52-2.29-1.33-4.39-1.47-6-.66h0l-.1.06h0l-5.52,3.11,2,5.38a23.81,23.81,0,0,0,2.47,9.51l-15,26.05L352,378.94,346.6,382l12.15,8.8-14.21,24.61c-.85,1.48-.34,4.29,1.14,6.29l.07.09-1.95,4.61,5.52-3.13h0a1.78,1.78,0,0,0,.58-.63l15.82-27.41,32.57,16.62,20.11,57.45,4.83-2.81C424.72,466.22,425.23,464,424.38,461.52Zm-42.71-93.88,13.56,36.23-25.86-14.93Z"/></clipPath><clipPath id="clip-path-220" transform="translate(-333.69 -150)"><path class="cls-2" d="M380.83,330a3.55,3.55,0,0,0-3.29,3.76v8c0,1.05,1.47,1.89,3.29,1.89s3.28-.84,3.28-1.89v-8a3.55,3.55,0,0,0-3.28-3.76"/></clipPath><clipPath id="clip-path-222" transform="translate(-333.69 -150)"><polygon class="cls-2" points="363.93 392.02 361.88 395.57 396.16 415.37 394.11 409.44 363.93 392.02"/></clipPath><clipPath id="clip-path-224" transform="translate(-333.69 -150)"><polygon class="cls-2" points="346.6 382.02 346.6 386.75 354.73 391.44 356.78 387.89 346.6 382.02"/></clipPath><clipPath id="clip-path-226" transform="translate(-333.69 -150)"><path class="cls-2" d="M418.94,464.59l-32.72-94.44a5.25,5.25,0,0,1-5.39,1l13.28,38.34,4.19,2.42v4.74l-2.14-1.23,17.41,50.26c.86,2.46,2.75,4.23,4.23,3.95s2-2.52,1.14-5"/></clipPath><clipPath id="clip-path-228" transform="translate(-333.69 -150)"><polygon class="cls-2" points="398.3 411.86 394.11 409.44 396.16 415.37 398.3 416.6 398.3 411.86"/></clipPath><clipPath id="clip-path-230" transform="translate(-333.69 -150)"><path class="cls-2" d="M339.1,418.5c-.85,1.48-.34,4.3,1.14,6.3s3.37,2.41,4.23.93l17.41-30.16-7.15-4.13Z"/></clipPath><clipPath id="clip-path-232" transform="translate(-333.69 -150)"><path class="cls-2" d="M377.21,369a21.62,21.62,0,0,1-5.39-7.17l-15,26.05,7.15,4.13Z"/></clipPath><clipPath id="clip-path-234" transform="translate(-333.69 -150)"><rect class="cls-1" x="357.28" y="387.6" width="4.1" height="8.26" transform="translate(-159.59 507.04) rotate(-60)"/></clipPath><clipPath id="clip-path-236" transform="translate(-333.69 -150)"><path class="cls-2" d="M377.21,369a13.29,13.29,0,0,0,1.81,1.28,9.19,9.19,0,0,0,1.81.81L379,365.88Z"/></clipPath><clipPath id="clip-path-238" transform="translate(-333.69 -150)"><path class="cls-2" d="M379,365.88l5.36-1,1.84,5.3c1.54-1.39,2.49-3.87,2.49-7.19,0-7.13-4.34-15.43-9.69-18.52s-9.69.19-9.69,7.33a23.6,23.6,0,0,0,2.49,10.07l1.84-3.18Zm0-15.44c2.87,1.66,5.2,6.1,5.2,9.93s-2.33,5.58-5.2,3.92-5.2-6.1-5.2-9.92S376.15,348.78,379,350.44Z"/></clipPath><clipPath id="clip-path-240" transform="translate(-333.69 -150)"><path class="cls-2" d="M379,365.88l1.81,5.22a5.25,5.25,0,0,0,5.39-1l-1.84-5.3Z"/></clipPath><clipPath id="clip-path-242" transform="translate(-333.69 -150)"><path class="cls-2" d="M377.21,369l1.81-3.13-5.36-7.22-1.84,3.18a21.62,21.62,0,0,0,5.39,7.17"/></clipPath><clipPath id="clip-path-244" transform="translate(-333.69 -150)"><path class="cls-2" d="M379,364.29c2.87,1.66,5.2-.1,5.2-3.92s-2.33-8.28-5.2-9.93-5.2.1-5.2,3.93,2.33,8.27,5.2,9.92"/></clipPath><clipPath id="clip-path-246" transform="translate(-333.69 -150)"><rect class="cls-1" x="744" y="475.39" width="29.16" height="9.2"/></clipPath><clipPath id="clip-path-248" transform="translate(-333.69 -150)"><rect class="cls-1" x="743" y="475" width="31" height="12"/></clipPath><clipPath id="clip-path-249" transform="translate(-333.69 -150)"><path class="cls-2" d="M765.27,479.33c-3.17.12-4.44.9-10.81,3.12l-.51.13c0,.15,0,.31,0,.47,0-.16,0-.32,0-.47-6.06,1.49-8.79-1-9.85-2.45a5.22,5.22,0,0,0-.08,1.5c.62,1.81,6.29,4.54,12.82,1.8,5-2.05,6.17-3,8.14-3.12s6,.29,8.18-2.87c0-.75,0-1.43,0-2.05-1.55,2.94-5,3.83-7.85,3.94"/></clipPath><clipPath id="clip-path-250" transform="translate(-333.69 -150)"><rect class="cls-1" x="744" y="475" width="30" height="10"/></clipPath><clipPath id="clip-path-251" transform="translate(-333.69 -150)"><path class="cls-2" d="M754,482.58c-.33-6.21-4.05-7-4.05-7s-5,.85-5.8,4.58c1.06,1.49,3.79,3.94,9.85,2.45"/></clipPath><clipPath id="clip-path-253" transform="translate(-333.69 -150)"><path class="cls-2" d="M764.69,462.52s0,3.74-1.35,5.88a3.29,3.29,0,0,1-.65.66c1,1,2.15,2.59,1.34,4.06,2.14.45,6.7.21,8.18-2.18.12-1.68,1.4-9.73,1.4-9.73Z"/></clipPath><clipPath id="clip-path-255" transform="translate(-333.69 -150)"><path class="cls-2" d="M764,473.12c.81-1.47-.36-3.08-1.34-4.06-2.88,2.36-12.79,6.49-12.79,6.49s3.72.82,4.05,7l.51-.13c6.37-2.22,7.64-3,10.81-3.12,2.81-.11,6.3-1,7.85-3.94-.07-2.5-.25-4-.91-4.45-1.48,2.39-6,2.63-8.18,2.18"/></clipPath><clipPath id="clip-path-257" transform="translate(-333.69 -150)"><path class="cls-2" d="M796.29,488.94c2.79-1.6,4.4.54,4.56,1.65,3.37-1,2.86-4.67,2.86-4.67.92-4.19,1.54-7,1.54-7l-8.14,1.6s-.4,3.58-.93,6.67a7.53,7.53,0,0,0,.11,1.71"/></clipPath><clipPath id="clip-path-259" transform="translate(-333.69 -150)"><path class="cls-2" d="M803.71,485.92s.51,3.68-2.86,4.67c-.16-1.11-1.77-3.25-4.56-1.65a7.53,7.53,0,0,1-.11-1.71,23.16,23.16,0,0,1-.86,3.81,64.4,64.4,0,0,1-5,9.92s5.85-1.28,8.61,4.2a14.11,14.11,0,0,0,3.14-5c.73-2.44,1.89-5.1,2.61-7.09.28-2.35.25-5.83-1-7.19"/></clipPath><clipPath id="clip-path-261" transform="translate(-333.69 -150)"><path class="cls-2" d="M792.18,509.36c2,0,4.69-1.94,6.76-4.2-2.76-5.48-8.61-4.2-8.61-4.2a9,9,0,0,0-1.86,6.89,4.83,4.83,0,0,0,3.71,1.51"/></clipPath><clipPath id="clip-path-263" transform="translate(-333.69 -150)"><rect class="cls-1" x="788.47" y="493.11" width="16.22" height="17.78"/></clipPath><clipPath id="clip-path-265" transform="translate(-333.69 -150)"><rect class="cls-1" x="788" y="493" width="17" height="19"/></clipPath><clipPath id="clip-path-266" transform="translate(-333.69 -150)"><path class="cls-2" d="M802.08,500.2a14.11,14.11,0,0,1-3.14,5c-2.07,2.26-4.72,4.16-6.76,4.2a4.83,4.83,0,0,1-3.71-1.51A3.75,3.75,0,0,0,791,510.7c3.51,1.23,10.78-3.82,12.08-10,.61-2.95.61-4.43,1.17-5.42a7.84,7.84,0,0,0,.49-2.18c-.72,2-1.88,4.65-2.61,7.09"/></clipPath><clipPath id="clip-path-267" transform="translate(-333.69 -150)"><rect class="cls-1" x="788" y="493" width="17" height="18"/></clipPath><clipPath id="clip-path-268" transform="translate(-333.69 -150)"><path class="cls-2" d="M797.52,410.05l20.35,11.48s4.31-18.63-20.35-11.48"/></clipPath><clipPath id="clip-path-270" transform="translate(-333.69 -150)"><path class="cls-2" d="M838.69,405.2s.9,7-1.5,11.19-14.11,18.48-20.27,23.49c-.5,2.14-8.14,37.8-9.45,41.5-1.73,2.47-9.44,3.45-11.87-1.4,1.43-8.13,8.32-41.31,9.65-45.11s17-18.41,6.53-23.71a11.5,11.5,0,0,0-11.09.62l-23.49,17-1.91,33.69s-3.08,4.31-9.24,2.59c-2.22-.74-3.21-3.95-3.21-3.95l2.47-42L782,404.54s22.19-6.18,22.43-7.89"/></clipPath><clipPath id="clip-path-272" transform="translate(-333.69 -150)"><path class="cls-2" d="M798.84,361.3s.82,13.91,1.93,21.16C801,385.08,779.5,404,779.5,404l4.54,3.4s22.47-16,23.58-19.72-.19-24.74-.19-24.74Z"/></clipPath><clipPath id="clip-path-274" transform="translate(-333.69 -150)"><path class="cls-2" d="M802.78,346.53s-2.34-.81-3.12,1c-1.14,2.6-.86,8.64-.82,13.79.74.74,5.35,2.09,8,2.09s-4-16.86-4-16.86"/></clipPath><clipPath id="clip-path-276" transform="translate(-333.69 -150)"><path class="cls-2" d="M830.39,378.82a14.71,14.71,0,0,0-.9-3.22c0,15.07-4.66,25.56-7.77,30.89a35.64,35.64,0,0,0,9.71.74l4.65-17.15s-5.66-10.79-5.69-11.26"/></clipPath><clipPath id="clip-path-278" transform="translate(-333.69 -150)"><path class="cls-2" d="M837.21,361.56c-8.3-8.21-19.49-13.74-19.49-13.74-6.18-2.72-12.72-1.71-14.94-1.29s4.27,27.61,4.27,27.61,4.7,7.56,18.66,7.62c-1.5,1.08-11.06,1.86-18.9-5.31-.47,4.57-1.57,14.76-2.39,20.2a32.45,32.45,0,0,0,17.3,9.84c3.11-5.33,7.77-15.82,7.77-30.89a14.71,14.71,0,0,1,.9,3.22c0,.47,5.69,11.26,5.69,11.26l-4.65,17.15c4-.27,6.85-1.24,7.26-2,0-3.12,3.29-39.36-1.48-43.64"/></clipPath><clipPath id="clip-path-280" transform="translate(-333.69 -150)"><path class="cls-2" d="M825.71,381.76c-14-.06-18.66-7.62-18.66-7.62s-.08.88-.24,2.31c7.84,7.17,17.4,6.39,18.9,5.31"/></clipPath><clipPath id="clip-path-282" transform="translate(-333.69 -150)"><path class="cls-2" d="M816.83,340s-1.06,6,1.52,8.69,5.3,5.75,1.32,8.1-12.68,1.08-12-6.53S816.83,340,816.83,340"/></clipPath><clipPath id="clip-path-284" transform="translate(-333.69 -150)"><path class="cls-2" d="M820.18,423.56v-1.29l-1.21-.1-30.58-17.65a5.49,5.49,0,0,0-5,.2l-3.1,1.79L762.17,417l-.65.37-2-.16v1.32l2.3,1.33,30.93,17.86,2.3,1.33,2.66-1.54L815.86,427l3.1-1.79c.83-.48,1.25-1.1,1.21-1.68Z"/></clipPath><clipPath id="clip-path-286" transform="translate(-333.69 -150)"><path class="cls-2" d="M819.32,421l-30.93-17.85a5.52,5.52,0,0,0-5,.2l-3.1,1.79-18.16,10.49-2.66,1.54,2.3,1.32,30.93,17.86,2.3,1.33,2.66-1.54,18.16-10.48,3.1-1.79c1.47-.85,1.63-2.13.36-2.87"/></clipPath><clipPath id="clip-path-288" transform="translate(-333.69 -150)"><path class="cls-2" d="M805.27,426.28l-17-9.79a3,3,0,0,0-2.72.11l-1.7,1-10,5.75-1.46.85,1.26.72,17,9.8,1.27.72,1.45-.84,10-5.75,1.7-1c.8-.47.89-1.17.19-1.57"/></clipPath><clipPath id="clip-path-290" transform="translate(-333.69 -150)"><path class="cls-2" d="M796.92,420.16l-9.51-5.49c-.75-.43-.65-1.2.21-1.7l6.15-3.55a3.29,3.29,0,0,1,2.94-.12l9.51,5.49c.75.43.66,1.2-.21,1.7L799.86,420a3.29,3.29,0,0,1-2.94.12"/></clipPath><clipPath id="clip-path-292" transform="translate(-333.69 -150)"><path class="cls-2" d="M794.21,324.25s-1.48,4.81-.8,8.39c-.55,2.59-3.51,15.71,4.87,18.67,7.21,1.67,15-2.59,18.55-11.34a5,5,0,0,0,5.8-4.87,43.33,43.33,0,0,0-1.24-9.12l-.61-7.52-14.3-3.64Z"/></clipPath><clipPath id="clip-path-294" transform="translate(-333.69 -150)"><path class="cls-2" d="M820.78,318.46a11.26,11.26,0,0,0-7.64,3.45c-3.58,3.58-18.49,9-22.93,1.48,1.85-1,3.33-4.19,6.16-7,3.33-4.75,20.34-10.11,24.41,2.09"/></clipPath><clipPath id="clip-path-296" transform="translate(-333.69 -150)"><path class="cls-2" d="M820.78,318.46s-5,1.54-6.9,4.62a32.94,32.94,0,0,1-3,3,5.44,5.44,0,0,1,2.34,4.13c0,2.59-.5,5.86,2.62,8.32,0-2.22,1.82-5.79,3.85-5.91s3,2.52,3,2.52,6.12-9.48-1.85-16.64"/></clipPath><clipPath id="clip-path-298" transform="translate(-333.69 -150)"><rect class="cls-1" x="788.42" y="378.82" width="51.38" height="40.96"/></clipPath><clipPath id="clip-path-300" transform="translate(-333.69 -150)"><rect class="cls-1" x="787" y="378" width="53" height="42"/></clipPath><clipPath id="clip-path-301" transform="translate(-333.69 -150)"><path class="cls-2" d="M839.8,378.82a14.42,14.42,0,0,1-9.41,0c.33,5.43,0,15.12-2.38,21.94-.9.83-22.6,1.4-26,3s-7.93,3.05-9.29,3.11,1,1.66,2.47,1c-1.17,2-5.92,8.88-6.53,10.42s.49,1.54.92,1.29a47.92,47.92,0,0,0,3.2-4.49s1.92,2.71,4.87,2.34c1.91-.37,4.5-6.6,6.54-7.58,2-.74,27.62-.25,29.89-3.39s5.91-21.48,5.77-27.72"/></clipPath><clipPath id="clip-path-302" transform="translate(-333.69 -150)"><rect class="cls-1" x="788" y="378" width="52" height="42"/></clipPath><clipPath id="clip-path-303" transform="translate(-333.69 -150)"><path class="cls-2" d="M795.6,437.43l-.2-3.19L794,412.48l-.23-3.71a6.13,6.13,0,0,0-2.5-4.51L760.38,386.4a1.5,1.5,0,0,0-1.21-.21h0a1,1,0,0,0-.23.12l-.41.2.09.13a2.53,2.53,0,0,0-.33,1.62l.23,3.71,1.36,21.76.2,3.18,2.3,1.33,30.92,17.86,1,.58.73,1Z"/></clipPath><clipPath id="clip-path-305" transform="translate(-333.69 -150)"><path class="cls-2" d="M790.75,404.54l-30.92-17.85c-1.27-.74-2.22.1-2.11,1.85l.24,3.72L759.31,414l.2,3.18,2.31,1.33,30.92,17.86,2.3,1.33-.2-3.19-1.35-21.76-.23-3.71a6.14,6.14,0,0,0-2.51-4.52"/></clipPath><clipPath id="clip-path-307" transform="translate(-333.69 -150)"><path class="cls-2" d="M777.75,412.1c-.37,1.49-2.11,2-3.88,1.14s-2.92-2.77-2.56-4.26,2.11-2,3.88-1.14,2.92,2.77,2.56,4.26"/></clipPath></defs><title>Ativo 1</title><g id="Camada_2" data-name="Camada 2"><g id="Layer_1" data-name="Layer 1"><g class="cls-3"><path class="cls-4" d="M415.91,431.09c20.16,11.64,22.35,29.24,4.89,39.32s-48,8.82-68.12-2.82-22.35-29.25-4.89-39.33S395.75,419.45,415.91,431.09Z" transform="translate(-333.69 -150)"/></g><g class="cls-5"><g class="cls-3"><rect class="cls-6" x="90.51" y="89.67" width="107.4" height="192.49"/></g></g><g class="cls-7"><g class="cls-3"><rect class="cls-8" x="90.51" y="115" width="101.98" height="167.16"/></g></g><g class="cls-9"><g class="cls-3"><rect class="cls-10" x="90.51" y="92.83" width="101.98" height="85.28"/></g></g><g class="cls-11"><g class="cls-3"><rect class="cls-8" x="96.54" y="105.43" width="14.49" height="16.53"/></g></g><g class="cls-12"><g class="cls-3"><rect class="cls-8" x="102.89" y="109.09" width="14.49" height="16.53"/></g></g><g class="cls-13"><g class="cls-3"><rect class="cls-8" x="109.23" y="112.76" width="14.49" height="16.53"/></g></g><g class="cls-14"><g class="cls-3"><rect class="cls-15" x="107.1" y="137.4" width="19.27" height="27.71"/></g></g><g class="cls-16"><g class="cls-3"><rect class="cls-15" x="156.63" y="166" width="19.27" height="27.71"/></g></g><g class="cls-17"><g class="cls-3"><rect class="cls-15" x="107.1" y="203.44" width="19.27" height="27.71"/></g></g><g class="cls-18"><g class="cls-3"><rect class="cls-15" x="156.63" y="232.04" width="19.27" height="27.71"/></g></g><g class="cls-19"><g class="cls-3"><rect class="cls-20" x="117.95" y="148.8" width="13.4" height="14.05"/></g></g><g class="cls-21"><g class="cls-3"><rect class="cls-20" x="122.76" y="151.58" width="13.4" height="14.05"/></g></g><g class="cls-22"><g class="cls-3"><rect class="cls-20" x="127.57" y="154.36" width="13.4" height="14.05"/></g></g><g class="cls-23"><g class="cls-3"><rect class="cls-20" x="132.39" y="157.14" width="13.4" height="14.05"/></g></g><g class="cls-24"><g class="cls-3"><rect class="cls-20" x="137.2" y="159.92" width="13.4" height="14.05"/></g></g><g class="cls-25"><g class="cls-3"><rect class="cls-20" x="142.02" y="162.7" width="13.4" height="14.05"/></g></g><g class="cls-26"><g class="cls-3"><rect class="cls-20" x="146.83" y="165.48" width="13.4" height="14.05"/></g></g><g class="cls-27"><g class="cls-3"><rect class="cls-20" x="151.64" y="168.26" width="13.4" height="14.05"/></g></g><g class="cls-28"><g class="cls-3"><rect class="cls-20" x="117.95" y="214.84" width="13.4" height="14.05"/></g></g><g class="cls-29"><g class="cls-3"><rect class="cls-20" x="122.76" y="217.62" width="13.4" height="14.05"/></g></g><g class="cls-30"><g class="cls-3"><rect class="cls-20" x="127.57" y="220.4" width="13.4" height="14.05"/></g></g><g class="cls-31"><g class="cls-3"><rect class="cls-20" x="132.39" y="223.18" width="13.4" height="14.05"/></g></g><g class="cls-32"><g class="cls-3"><rect class="cls-20" x="137.2" y="225.96" width="13.4" height="14.06"/></g></g><g class="cls-33"><g class="cls-3"><rect class="cls-20" x="142.02" y="228.74" width="13.4" height="14.06"/></g></g><g class="cls-34"><g class="cls-3"><rect class="cls-20" x="146.83" y="231.52" width="13.4" height="14.05"/></g></g><g class="cls-35"><g class="cls-3"><rect class="cls-20" x="151.64" y="234.3" width="13.4" height="14.05"/></g></g><g class="cls-36"><g class="cls-3"><rect class="cls-20" x="110.95" y="154.09" width="11.57" height="15.44"/></g></g><g class="cls-37"><g class="cls-3"><rect class="cls-20" x="110.95" y="160.51" width="11.57" height="15.44"/></g></g><g class="cls-38"><g class="cls-3"><rect class="cls-20" x="110.95" y="166.93" width="11.57" height="15.44"/></g></g><g class="cls-39"><g class="cls-3"><rect class="cls-20" x="110.95" y="173.35" width="11.57" height="15.44"/></g></g><g class="cls-40"><g class="cls-3"><rect class="cls-20" x="110.95" y="179.77" width="11.57" height="15.44"/></g></g><g class="cls-41"><g class="cls-3"><rect class="cls-20" x="110.95" y="186.19" width="11.57" height="15.44"/></g></g><g class="cls-42"><g class="cls-3"><rect class="cls-20" x="110.95" y="192.61" width="11.57" height="15.44"/></g></g><g class="cls-43"><g class="cls-3"><rect class="cls-20" x="110.95" y="199.02" width="11.57" height="15.44"/></g></g><g class="cls-44"><g class="cls-3"><rect class="cls-20" x="160.48" y="182.69" width="11.57" height="15.44"/></g></g><g class="cls-45"><g class="cls-3"><rect class="cls-20" x="160.48" y="189.11" width="11.57" height="15.44"/></g></g><g class="cls-46"><g class="cls-3"><rect class="cls-20" x="160.48" y="195.53" width="11.57" height="15.44"/></g></g><g class="cls-47"><g class="cls-3"><rect class="cls-20" x="160.48" y="201.94" width="11.57" height="15.44"/></g></g><g class="cls-48"><g class="cls-3"><rect class="cls-20" x="160.48" y="208.36" width="11.57" height="15.44"/></g></g><g class="cls-49"><g class="cls-3"><rect class="cls-20" x="160.48" y="214.78" width="11.57" height="15.44"/></g></g><g class="cls-50"><g class="cls-3"><rect class="cls-20" x="160.48" y="221.2" width="11.57" height="15.44"/></g></g><g class="cls-51"><g class="cls-3"><rect class="cls-20" x="160.48" y="227.62" width="11.57" height="15.44"/></g></g><g class="cls-52"><g class="cls-3"><rect class="cls-53" x="118.86" y="167.94" width="45.28" height="61.27"/></g></g><g class="cls-54"><g class="cls-3"><rect class="cls-55" x="219.23" y="63.98" width="221.27" height="322.01"/></g></g><g class="cls-56"><g class="cls-3"><rect class="cls-20" x="216.49" y="65.2" width="221.28" height="322.01"/></g></g><g class="cls-57"><g class="cls-3"><rect class="cls-58" x="320.11" y="126.25" width="14.04" height="15.87"/></g></g><g class="cls-59"><g class="cls-3"><rect class="cls-60" x="52.8" y="263.08" width="382.57" height="225.1"/></g></g><g class="cls-61"><g class="cls-3"><rect class="cls-55" x="52.8" y="257.79" width="382.57" height="225.1"/></g></g><g class="cls-62"><g class="cls-3"><rect class="cls-63" x="121.7" y="352.01" width="150.48" height="91.11"/></g></g><g class="cls-64"><g class="cls-3"><rect class="cls-60" x="246.22" y="274.72" width="159.84" height="96.51"/></g></g><g class="cls-65"><g class="cls-3"><rect class="cls-20" x="139.21" y="405.67" width="40.03" height="27.34"/></g></g><g class="cls-66"><g class="cls-3"><rect class="cls-67" x="143.62" y="273.22" width="265.03" height="157.24"/></g></g><g class="cls-3"><g class="cls-68"><g class="cls-69"><g class="cls-70"><g class="cls-69"><rect class="cls-71" x="226.19" y="79.27" width="37.88" height="74.38"/></g></g><g class="cls-72"><g class="cls-69"><rect class="cls-71" x="250.62" y="136.65" width="108.32" height="153.3"/></g></g><g class="cls-73"><g class="cls-69"><rect class="cls-71" x="310.18" y="171.03" width="117.88" height="202.1"/></g></g><g class="cls-74"><g class="cls-69"><rect class="cls-71" x="226.19" y="95.37" width="109.37" height="181.09"/></g></g><g class="cls-75"><g class="cls-69"><rect class="cls-76" x="273.99" y="150.14" width="121.13" height="160.7"/></g></g></g></g></g><g class="cls-77"><g class="cls-3"><rect class="cls-71" x="291.29" y="199.63" width="18.6" height="22.5"/></g></g><g class="cls-78"><g class="cls-3"><rect class="cls-71" x="308.98" y="209.84" width="18.6" height="22.5"/></g></g><g class="cls-79"><g class="cls-3"><rect class="cls-71" x="326.67" y="220.06" width="18.6" height="22.5"/></g></g><g class="cls-80"><g class="cls-3"><rect class="cls-71" x="344.36" y="230.27" width="18.6" height="22.5"/></g></g><g class="cls-81"><g class="cls-3"><rect class="cls-82" x="221.72" y="243.97" width="100.15" height="139.45"/></g></g><g class="cls-83"><g class="cls-3"><rect class="cls-84" x="221.72" y="218.1" width="100.15" height="61.74"/></g></g><g class="cls-85"><g class="cls-3"><rect class="cls-82" x="224.02" y="81.05" width="95.54" height="188.91"/></g></g><g class="cls-86"><g class="cls-3"><rect class="cls-87" x="224.02" y="84.11" width="50.16" height="170.58"/></g></g><g class="cls-88"><g class="cls-3"><rect class="cls-87" x="264.19" y="92.62" width="50.16" height="177.35"/></g></g><g class="cls-89"><g class="cls-3"><rect class="cls-71" x="313.63" y="125.73" width="29.56" height="43.99"/></g></g><g class="cls-90"><g class="cls-3"><rect class="cls-55" x="313.63" y="115.55" width="47.18" height="31.47"/></g></g><g class="cls-91"><g class="cls-3"><rect class="cls-92" x="333.19" y="126.85" width="27.62" height="42.88"/></g></g><g class="cls-93"><g class="cls-3"><rect class="cls-71" x="182.77" y="50.18" width="29.56" height="43.99"/></g></g><g class="cls-94"><g class="cls-3"><rect class="cls-55" x="182.77" y="40" width="47.18" height="31.47"/></g></g><g class="cls-95"><g class="cls-3"><rect class="cls-92" x="202.33" y="51.29" width="27.62" height="42.88"/></g></g><g class="cls-96"><g class="cls-3"><rect class="cls-71" x="265.82" y="21.02" width="29.56" height="47.37"/></g></g><g class="cls-3"><path class="cls-97" d="M605.49,199.82q4.18,2.42,8,4.94" transform="translate(-333.69 -150)"/><path class="cls-97" d="M605.49,199.82c-56.84-32.82-65.43,5.93-65.43,5.93" transform="translate(-333.69 -150)"/><line class="cls-97" x1="271.8" y1="49.82" x2="280.1" y2="54.61"/><line class="cls-97" x1="271.8" y1="49.82" x2="206.37" y2="12.04"/><line class="cls-97" x1="280.1" y1="54.61" x2="279.83" y2="54.76"/></g><g class="cls-98"><g class="cls-3"><rect class="cls-71" x="248.2" y="31.21" width="29.56" height="43.99"/></g></g><g class="cls-99"><g class="cls-3"><rect class="cls-55" x="248.2" y="21.03" width="47.18" height="31.47"/></g></g><g class="cls-100"><g class="cls-3"><rect class="cls-92" x="267.76" y="32.32" width="27.62" height="42.88"/></g></g><g class="cls-3"><path class="cls-97" d="M670.92,281.3s-7.78-44-57.4-76.54" transform="translate(-333.69 -150)"/><line class="cls-97" x1="280.1" y1="54.61" x2="337.23" y2="87.59"/></g><g class="cls-101"><g class="cls-3"><rect class="cls-102" x="325.41" y="75.69" width="24.08" height="24.08"/></g></g><g class="cls-103"><g class="cls-3"><rect class="cls-102" x="194.33" width="24.08" height="24.08"/></g></g><g class="cls-104"><g class="cls-3"><rect class="cls-20" x="406.29" y="230.42" width="128.05" height="269.79"/></g></g><g class="cls-105"><g class="cls-3"><rect class="cls-55" x="401.65" y="233.08" width="128.05" height="268.04"/></g></g><g class="cls-106"><g class="cls-3"><rect class="cls-15" x="455.19" y="299.83" width="58.65" height="41.2"/></g></g><g class="cls-107"><g class="cls-3"><rect class="cls-15" x="455.19" y="337.85" width="58.65" height="41.2"/></g></g><g class="cls-108"><g class="cls-3"><rect class="cls-15" x="417.5" y="335.1" width="96.34" height="62.96"/></g></g><g class="cls-109"><g class="cls-3"><rect class="cls-15" x="417.5" y="354.11" width="96.34" height="62.96"/></g></g><g class="cls-110"><g class="cls-3"><rect class="cls-15" x="417.5" y="373.12" width="96.34" height="62.96"/></g></g><g class="cls-111"><g class="cls-3"><rect class="cls-15" x="417.5" y="392.13" width="96.34" height="62.96"/></g></g><g class="cls-112"><g class="cls-3"><rect class="cls-15" x="417.5" y="411.14" width="96.34" height="62.96"/></g></g><g class="cls-113"><g class="cls-3"><rect class="cls-15" x="455.19" y="318.84" width="58.65" height="41.2"/></g></g><g class="cls-114"><g class="cls-3"><rect class="cls-15" x="497.22" y="282.19" width="32.47" height="52.94"/></g></g><g class="cls-115"><g class="cls-3"><rect class="cls-20" x="288.76" y="473.75" width="212.01" height="126.62"/></g></g><g class="cls-116"><g class="cls-3"><rect class="cls-8" x="288.76" y="472.12" width="89.67" height="56"/></g></g><g class="cls-117"><g class="cls-3"><rect class="cls-55" x="319.35" y="489.77" width="89.67" height="56"/></g></g><g class="cls-118"><g class="cls-3"><rect class="cls-119" x="349.93" y="507.43" width="89.67" height="56"/></g></g><g class="cls-120"><g class="cls-3"><rect class="cls-121" x="380.51" y="525.08" width="89.67" height="56"/></g></g><g class="cls-122"><g class="cls-3"><rect class="cls-53" x="411.09" y="542.74" width="89.67" height="56"/></g></g><g class="cls-123"><g class="cls-3"><rect class="cls-20" x="303.85" y="466.18" width="152.55" height="61.54"/></g></g><g class="cls-124"><g class="cls-3"><rect class="cls-8" x="303.85" y="474.33" width="59.2" height="51.76"/></g></g><g class="cls-125"><g class="cls-3"><rect class="cls-102" x="350.53" y="469.44" width="59.2" height="51.76"/></g></g><g class="cls-126"><g class="cls-3"><rect class="cls-127" x="397.21" y="464.55" width="59.2" height="51.76"/></g></g><g class="cls-128"><g class="cls-3"><rect class="cls-20" x="320.02" y="490.17" width="27.15" height="19.9"/></g></g><g class="cls-129"><g class="cls-3"><rect class="cls-20" x="320.03" y="493.24" width="27.15" height="12.71"/></g></g><g class="cls-130"><g class="cls-3"><rect class="cls-55" x="320.02" y="489.02" width="27.15" height="19.9"/></g></g><g class="cls-131"><g class="cls-3"><rect class="cls-20" x="80.37" y="307.16" width="12.33" height="19.05"/></g></g><g class="cls-132"><g class="cls-3"><rect class="cls-20" x="7.02" y="264.88" width="12.33" height="19.05"/></g></g><g class="cls-133"><g class="cls-3"><rect class="cls-20" x="2.84" y="219.18" width="21.16" height="26.44"/></g></g><g class="cls-134"><g class="cls-3"><rect class="cls-60" x="5.57" y="220.7" width="20.47" height="25.22"/></g></g><g class="cls-135"><g class="cls-3"><rect class="cls-136" x="5.11" y="185.21" width="91" height="139.11"/></g></g><g class="cls-137"><g class="cls-3"><rect class="cls-55" x="38.85" y="175.04" width="16.57" height="23.66"/></g></g><g class="cls-138"><g class="cls-3"><rect class="cls-20" x="23.19" y="237.02" width="44.29" height="33.35"/></g></g><g class="cls-139"><g class="cls-3"><rect class="cls-20" x="7.92" y="227.02" width="20.17" height="19.43"/></g></g><g class="cls-140"><g class="cls-3"><rect class="cls-20" x="42.14" y="215.15" width="48.52" height="109.46"/></g></g><g class="cls-141"><g class="cls-3"><rect class="cls-20" x="55.42" y="254.44" width="14.19" height="17.15"/></g></g><g class="cls-142"><g class="cls-3"><rect class="cls-20" y="236.44" width="33.19" height="45.17"/></g></g><g class="cls-143"><g class="cls-3"><rect class="cls-20" x="18.09" y="206.84" width="30.43" height="40.18"/></g></g><g class="cls-144"><g class="cls-3"><rect class="cls-20" x="16.04" y="232.89" width="19.2" height="17.68"/></g></g><g class="cls-145"><g class="cls-3"><rect class="cls-55" x="38.52" y="210.88" width="13.62" height="15.22"/></g></g><g class="cls-146"><g class="cls-3"><rect class="cls-55" x="30.64" y="188.28" width="29.39" height="36.87"/></g></g><g class="cls-147"><g class="cls-3"><rect class="cls-55" x="40.33" y="209.85" width="17.2" height="16.59"/></g></g><g class="cls-148"><g class="cls-3"><rect class="cls-55" x="33.13" y="203.66" width="17.2" height="20.36"/></g></g><g class="cls-149"><g class="cls-3"><rect class="cls-20" x="35.14" y="194.81" width="20.39" height="25.1"/></g></g><g class="cls-150"><g class="cls-3"><g class="cls-151"><g class="cls-152"><g class="cls-153"><g class="cls-154"><rect class="cls-155" x="405.31" y="320.39" width="39.16" height="19.2"/></g></g></g></g></g></g><g class="cls-156"><g class="cls-3"><rect class="cls-157" x="405.41" y="320.55" width="19.85" height="17.5"/></g></g><g class="cls-158"><g class="cls-3"><rect class="cls-159" x="424" y="306.21" width="20.92" height="22.1"/></g></g><g class="cls-160"><g class="cls-3"><rect class="cls-87" x="411.21" y="314.06" width="33.22" height="23.52"/></g></g><g class="cls-161"><g class="cls-3"><rect class="cls-159" x="457.49" y="323.96" width="19.07" height="21.63"/></g></g><g class="cls-162"><g class="cls-3"><rect class="cls-87" x="451.64" y="330.92" width="24.5" height="29.24"/></g></g><g class="cls-163"><g class="cls-3"><rect class="cls-157" x="449.65" y="345.83" width="20.6" height="18.53"/></g></g><g class="cls-164"><g class="cls-3"><g class="cls-151"><g class="cls-165"><g class="cls-166"><g class="cls-167"><rect class="cls-155" x="449.78" y="338.11" width="26.22" height="27.78"/></g></g></g></g></g></g><g class="cls-168"><g class="cls-3"><rect class="cls-169" x="458.83" y="253.42" width="30.64" height="23.12"/></g></g><g class="cls-170"><g class="cls-3"><rect class="cls-155" x="424.15" y="241.65" width="86.02" height="96.77"/></g></g><g class="cls-171"><g class="cls-3"><rect class="cls-159" x="440.81" y="206.3" width="38.57" height="56.12"/></g></g><g class="cls-172"><g class="cls-3"><rect class="cls-173" x="460.09" y="191.34" width="18.65" height="27.05"/></g></g><g class="cls-174"><g class="cls-3"><rect class="cls-173" x="483.03" y="220.6" width="24.36" height="41.7"/></g></g><g class="cls-175"><g class="cls-3"><rect class="cls-176" x="463.63" y="191" width="47.48" height="71.23"/></g></g><g class="cls-177"><g class="cls-3"><rect class="cls-173" x="468.13" y="219.14" width="28.89" height="18.32"/></g></g><g class="cls-178"><g class="cls-3"><rect class="cls-179" x="468.93" y="184.97" width="24.07" height="27.85"/></g></g><g class="cls-180"><g class="cls-3"><rect class="cls-181" x="420.82" y="249.02" width="70.67" height="45.03"/></g></g><g class="cls-182"><g class="cls-3"><rect class="cls-183" x="420.82" y="247.69" width="70.67" height="45.03"/></g></g><g class="cls-184"><g class="cls-3"><rect class="cls-185" x="433.78" y="261.22" width="43.27" height="29.21"/></g></g><g class="cls-186"><g class="cls-3"><rect class="cls-187" x="448.22" y="254.01" width="29.82" height="21.44"/></g></g><g class="cls-188"><g class="cls-3"><rect class="cls-159" x="453.77" y="159.82" width="40.18" height="46.84"/></g></g><g class="cls-189"><g class="cls-3"><rect class="cls-190" x="451.52" y="156" width="40.57" height="26.17"/></g></g><g class="cls-191"><g class="cls-3"><rect class="cls-190" x="472.17" y="163.46" width="24.02" height="30.03"/></g></g><g class="cls-192"><g class="cls-3"><g class="cls-151"><g class="cls-193"><g class="cls-194"><g class="cls-195"><rect class="cls-159" x="449.73" y="223.82" width="61.38" height="50.96"/></g></g></g></g></g></g><g class="cls-196"><g class="cls-3"><rect class="cls-183" x="419.58" y="231.14" width="47.33" height="61.58"/></g></g><g class="cls-197"><g class="cls-3"><rect class="cls-198" x="419.03" y="231.42" width="47.33" height="61.29"/></g></g><g class="cls-199"><g class="cls-3"><rect class="cls-8" x="432.56" y="252.42" width="16.57" height="16.24"/></g></g></g></g></svg>