<svg xmlns="http://www.w3.org/2000/svg" xmlns:xlink="http://www.w3.org/1999/xlink" viewBox="0 0 510.93 609.67"><defs><style>.cls-1,.cls-2{fill:none;}.cls-1{clip-rule:evenodd;}.cls-3{clip-path:url(#clip-path);}.cls-4{clip-path:url(#clip-path-2);}.cls-5{fill:#2d4a8b;}.cls-6{clip-path:url(#clip-path-3);}.cls-7{clip-path:url(#clip-path-5);}.cls-8{fill:#cadaff;}.cls-9{clip-path:url(#clip-path-7);}.cls-10{fill:#b9ceff;}.cls-11{clip-path:url(#clip-path-9);}.cls-12{fill:#2b2f90;}.cls-13{clip-path:url(#clip-path-11);}.cls-14{fill:#121633;}.cls-15{clip-path:url(#clip-path-13);}.cls-16{fill:#edf0f9;}.cls-17{clip-path:url(#clip-path-15);}.cls-18{fill:#dc7c00;}.cls-19{clip-path:url(#clip-path-17);}.cls-20{fill:#ff8f00;}.cls-21{clip-path:url(#clip-path-19);}.cls-22{fill:#faa800;}.cls-23{clip-path:url(#clip-path-21);}.cls-24{clip-path:url(#clip-path-23);}.cls-25{clip-path:url(#clip-path-25);}.cls-26{clip-path:url(#clip-path-27);}.cls-27{clip-path:url(#clip-path-29);}.cls-28{clip-path:url(#clip-path-31);}.cls-29{clip-path:url(#clip-path-33);}.cls-30{clip-path:url(#clip-path-35);}.cls-31{clip-path:url(#clip-path-37);}.cls-32{clip-path:url(#clip-path-39);}.cls-33{clip-path:url(#clip-path-41);}.cls-34{clip-path:url(#clip-path-43);}.cls-35{clip-path:url(#clip-path-45);}.cls-36{clip-path:url(#clip-path-47);}.cls-37{fill:#4b4e85;}.cls-38{clip-path:url(#clip-path-49);}.cls-39{clip-path:url(#clip-path-51);}.cls-40{clip-path:url(#clip-path-53);}.cls-41{clip-path:url(#clip-path-55);}.cls-42{fill:#3062ff;}.cls-43{clip-path:url(#clip-path-57);}.cls-44{fill:#ffbf51;}.cls-45{clip-path:url(#clip-path-59);}.cls-46{fill:#fdd786;}.cls-47{clip-path:url(#clip-path-61);}.cls-48{fill:#ff7362;}.cls-49{clip-path:url(#clip-path-63);}.cls-50{fill:#fb4329;}.cls-51{clip-path:url(#clip-path-65);}.cls-52{isolation:isolate;}.cls-53{clip-path:url(#clip-path-67);}.cls-54{clip-path:url(#clip-path-68);}.cls-55{clip-path:url(#clip-path-70);}.cls-56{clip-path:url(#clip-path-72);}.cls-57{clip-path:url(#clip-path-73);}.cls-58{fill:#e06455;}.cls-59{clip-path:url(#clip-path-75);}.cls-60{fill:#ca5d50;}.cls-61{clip-path:url(#clip-path-77);}.cls-62{fill:#fff;}.cls-63{clip-path:url(#clip-path-79);}.cls-64{fill:#9200ff;}.cls-65{clip-path:url(#clip-path-81);}.cls-66{fill:#9c73ff;}.cls-67{clip-path:url(#clip-path-83);}.cls-68{fill:#c4acff;}.cls-69{clip-path:url(#clip-path-85);}.cls-70{clip-path:url(#clip-path-87);}.cls-71{clip-path:url(#clip-path-89);}.cls-72{clip-path:url(#clip-path-91);}.cls-73{clip-path:url(#clip-path-93);}.cls-74{clip-path:url(#clip-path-94);}.cls-75{clip-path:url(#clip-path-96);}.cls-76{clip-path:url(#clip-path-98);}.cls-77{fill:#ee70a7;}.cls-78{clip-path:url(#clip-path-100);}.cls-79{clip-path:url(#clip-path-102);}.cls-80{clip-path:url(#clip-path-103);}.cls-81{clip-path:url(#clip-path-104);}.cls-82{fill:#0d2155;}.cls-83{clip-path:url(#clip-path-105);}.cls-84{fill:#e7f1f6;}.cls-85{clip-path:url(#clip-path-107);}.cls-86{fill:#fabac2;}.cls-87{clip-path:url(#clip-path-109);}.cls-88{fill:#3eb4ff;}.cls-89{clip-path:url(#clip-path-111);}.cls-90{clip-path:url(#clip-path-113);}.cls-91{clip-path:url(#clip-path-115);}.cls-92{clip-path:url(#clip-path-117);}.cls-93{clip-path:url(#clip-path-119);}.cls-94{clip-path:url(#clip-path-120);}.cls-95{clip-path:url(#clip-path-121);}.cls-96{clip-path:url(#clip-path-122);}.cls-97{fill:#6f789e;}.cls-98{clip-path:url(#clip-path-124);}.cls-99{clip-path:url(#clip-path-126);}.cls-100{clip-path:url(#clip-path-128);}.cls-101{fill:#e64379;}.cls-102{clip-path:url(#clip-path-130);}.cls-103{clip-path:url(#clip-path-132);}.cls-104{fill:#fd5687;}.cls-105{clip-path:url(#clip-path-134);}.cls-106{clip-path:url(#clip-path-136);}.cls-107{fill:#faabb2;}.cls-108{clip-path:url(#clip-path-138);}.cls-109{fill:#9fc0f0;}.cls-110{clip-path:url(#clip-path-140);}.cls-111{fill:#c6e2fb;}.cls-112{clip-path:url(#clip-path-142);}.cls-113{fill:#2e3b70;}.cls-114{clip-path:url(#clip-path-144);}.cls-115{fill:#a7cbf0;}.cls-116{clip-path:url(#clip-path-146);}.cls-117{clip-path:url(#clip-path-148);}.cls-118{fill:#b56f7c;}.cls-119{clip-path:url(#clip-path-150);}.cls-120{clip-path:url(#clip-path-152);}.cls-121{clip-path:url(#clip-path-154);}.cls-122{clip-path:url(#clip-path-155);}.cls-123{clip-path:url(#clip-path-156);}.cls-124{clip-path:url(#clip-path-157);}.cls-125{clip-path:url(#clip-path-159);}.cls-126{fill:#b0b5d1;}.cls-127{clip-path:url(#clip-path-161);}</style><clipPath id="clip-path" transform="translate(-345 -145)"><polygon class="cls-1" points="609.21 219.14 609.21 543.49 811.77 660.43 811.77 336.09 811.77 266.95 609.21 150 609.21 219.14"/></clipPath><clipPath id="clip-path-2" transform="translate(-345 -145)"><rect class="cls-2" width="1200" height="900"/></clipPath><clipPath id="clip-path-3" transform="translate(-345 -145)"><polygon class="cls-1" points="604.13 152.91 806.68 663.35 811.77 660.43 609.21 150 604.13 152.91"/></clipPath><clipPath id="clip-path-5" transform="translate(-345 -145)"><polygon class="cls-1" points="806.68 663.35 604.13 546.4 604.13 152.91 806.68 269.86 806.68 663.35"/></clipPath><clipPath id="clip-path-7" transform="translate(-345 -145)"><path class="cls-1" d="M800.08,344,610.73,234.67c-3.63-2.09-6.6-7.77-6.6-12.62V152.91l202.55,117V339c0,4.84-3,7.09-6.6,5"/></clipPath><clipPath id="clip-path-9" transform="translate(-345 -145)"><path class="cls-1" d="M717.79,253.51c0-6-3.66-13-8.18-15.64-2.54-1.47-4.8-1.21-6.31.34a16.93,16.93,0,0,0-6.3-7.62c-4.52-2.61-8.18.17-8.18,6.19a20.34,20.34,0,0,0,2.5,9.3h0l12,23v0l12-9.17h0c1.54-1.09,2.5-3.31,2.5-6.4"/></clipPath><clipPath id="clip-path-11" transform="translate(-345 -145)"><path class="cls-1" d="M506.81,465.21c0,8.45,5.19,18.35,11.52,22L619.4,545.57c6.34,3.66,11.52-.26,11.52-8.71V514.65L506.81,443Z"/></clipPath><clipPath id="clip-path-13" transform="translate(-345 -145)"><path class="cls-1" d="M495.45,471.78c0,8.45,5.19,18.35,11.52,22L608,552.14c6.34,3.66,11.52-.26,11.52-8.71V521.22L495.45,449.56Z"/></clipPath><clipPath id="clip-path-15" transform="translate(-345 -145)"><path class="cls-1" d="M850.93,485.35V401.16L642.64,558.63l29.94,17.29,3.76,2.17L702,592.91l3.76,2.17,25.68,14.83,3.76,2.17L760.9,626.9l3.75,2.17,25.68,14.83,1.35.78,59.25,34.2V485.35ZM707.06,559.29l116.47-88V626.53Z"/></clipPath><clipPath id="clip-path-17" transform="translate(-345 -145)"><polygon class="cls-1" points="823.63 694.67 850.93 678.88 850.93 401.16 823.63 416.95 823.63 694.67"/></clipPath><clipPath id="clip-path-19" transform="translate(-345 -145)"><path class="cls-1" d="M615.34,574.41,823.63,694.67V417Zm180.89,67.91L679.76,575.07,796.23,487Z"/></clipPath><clipPath id="clip-path-21" transform="translate(-345 -145)"><polygon class="cls-1" points="796.23 678.85 792.47 676.68 792.47 661.81 796.23 663.98 796.23 678.85"/></clipPath><clipPath id="clip-path-23" transform="translate(-345 -145)"><polygon class="cls-1" points="766.79 661.85 763.03 659.68 763.03 644.81 766.79 646.98 766.79 661.85"/></clipPath><clipPath id="clip-path-25" transform="translate(-345 -145)"><polygon class="cls-1" points="737.35 644.86 733.6 642.69 733.6 627.82 737.35 629.99 737.35 644.86"/></clipPath><clipPath id="clip-path-27" transform="translate(-345 -145)"><polygon class="cls-1" points="707.92 627.86 704.16 625.69 704.16 610.82 707.92 612.99 707.92 627.86"/></clipPath><clipPath id="clip-path-29" transform="translate(-345 -145)"><polygon class="cls-1" points="678.48 610.87 674.72 608.7 674.72 593.83 678.48 596 678.48 610.87"/></clipPath><clipPath id="clip-path-31" transform="translate(-345 -145)"><polygon class="cls-1" points="649.04 593.87 645.28 591.7 645.28 576.83 649.04 579 649.04 593.87"/></clipPath><clipPath id="clip-path-33" transform="translate(-345 -145)"><polygon class="cls-1" points="823.63 456.88 823.63 461.89 812.48 455.45 812.48 450.44 823.63 456.88"/></clipPath><clipPath id="clip-path-35" transform="translate(-345 -145)"><polygon class="cls-1" points="823.63 496.13 823.63 501.14 812.48 494.7 812.48 489.69 823.63 496.13"/></clipPath><clipPath id="clip-path-37" transform="translate(-345 -145)"><polygon class="cls-1" points="823.63 535.38 823.63 540.39 812.48 533.95 812.48 528.94 823.63 535.38"/></clipPath><clipPath id="clip-path-39" transform="translate(-345 -145)"><polygon class="cls-1" points="823.63 574.63 823.63 579.64 812.48 573.2 812.48 568.18 823.63 574.63"/></clipPath><clipPath id="clip-path-41" transform="translate(-345 -145)"><polygon class="cls-1" points="823.63 613.88 823.63 618.89 812.48 612.45 812.48 607.43 823.63 613.88"/></clipPath><clipPath id="clip-path-43" transform="translate(-345 -145)"><polygon class="cls-1" points="823.63 653.12 823.63 658.13 812.48 651.7 812.48 646.68 823.63 653.12"/></clipPath><clipPath id="clip-path-45" transform="translate(-345 -145)"><path class="cls-1" d="M394.76,563.44c2-3.42,5.08-5.58,8-6l6.58,3.8a8.21,8.21,0,0,1,.33,1A12.83,12.83,0,0,0,401.23,577a7.35,7.35,0,0,1-1,.2l-6.58-3.8c-1.16-2.75-.84-6.52,1.13-9.93"/></clipPath><clipPath id="clip-path-47" transform="translate(-345 -145)"><path class="cls-1" d="M377.68,547l4.08,2.36,5.11,3a7.75,7.75,0,0,0-5.68,9.85l-5.12-3L372,556.86a7.77,7.77,0,0,1,5.69-9.85"/></clipPath><clipPath id="clip-path-49" transform="translate(-345 -145)"><path class="cls-1" d="M410.74,562.08l6.58,3.8,144,83.11c-3,.36-6.07,2.53-8,5.94s-2.29,7.19-1.13,9.94l-144-83.12-6.58-3.8a9.4,9.4,0,0,1-.34-1,12.83,12.83,0,0,1,8.48-14.69,7.79,7.79,0,0,1,1-.2"/></clipPath><clipPath id="clip-path-51" transform="translate(-345 -145)"><path class="cls-1" d="M561.27,649l6.58,3.8,30.26,17.47c-3,.36-6.07,2.53-8,5.94s-2.29,7.19-1.12,9.94l-30.27-17.48-6.58-3.8c-1.16-2.74-.84-6.52,1.13-9.93s5.08-5.58,8-5.94"/></clipPath><clipPath id="clip-path-53" transform="translate(-345 -145)"><path class="cls-1" d="M388,548.94l6.58,3.8,8.24,4.75c-3,.37-6.07,2.53-8,6s-2.29,7.18-1.13,9.93l-8.24-4.76-6.58-3.79c-1.16-2.75-.84-6.53,1.13-9.94s5.08-5.58,8-5.94"/></clipPath><clipPath id="clip-path-55" transform="translate(-345 -145)"><path class="cls-1" d="M598.11,670.26l7.25,7.44L619,691.65l.18.18a1.11,1.11,0,0,1,0,1.18,1.1,1.1,0,0,1-1,.54l-.25-.07L599,688.69,589,686.14c-1.17-2.75-.85-6.53,1.12-9.94s5.08-5.58,8-5.94"/></clipPath><clipPath id="clip-path-57" transform="translate(-345 -145)"><path class="cls-1" d="M531.05,506.12l0,0Z"/></clipPath><clipPath id="clip-path-59" transform="translate(-345 -145)"><path class="cls-1" d="M530.93,506.19h0l.11-.07Z"/></clipPath><clipPath id="clip-path-61" transform="translate(-345 -145)"><polygon class="cls-1" points="358.84 442.66 358.84 512.45 428.51 552.67 428.51 482.89 358.84 442.66"/></clipPath><clipPath id="clip-path-63" transform="translate(-345 -145)"><polygon class="cls-1" points="508.97 436.44 508.97 506.22 428.51 552.67 428.51 482.89 508.97 436.44"/></clipPath><clipPath id="clip-path-65" transform="translate(-345 -145)"><rect class="cls-2" x="350" y="375.26" width="167.81" height="96.88"/></clipPath><clipPath id="clip-path-67" transform="translate(-345 -145)"><rect class="cls-2" x="350" y="375" width="168" height="98"/></clipPath><clipPath id="clip-path-68" transform="translate(-345 -145)"><polygon class="cls-1" points="427.88 472.14 350 427.18 439.93 375.26 517.8 420.23 427.88 472.14"/></clipPath><clipPath id="clip-path-70" transform="translate(-345 -145)"><rect class="cls-2" x="350" y="427.18" width="77.88" height="60.81"/></clipPath><clipPath id="clip-path-72" transform="translate(-345 -145)"><rect class="cls-2" x="350" y="427" width="78" height="61"/></clipPath><clipPath id="clip-path-73" transform="translate(-345 -145)"><polygon class="cls-1" points="350 427.18 350 443.03 427.88 487.99 427.88 472.14 350 427.18"/></clipPath><clipPath id="clip-path-75" transform="translate(-345 -145)"><polygon class="cls-1" points="517.81 420.23 517.81 436.07 427.88 487.99 427.88 472.15 517.81 420.23"/></clipPath><clipPath id="clip-path-77" transform="translate(-345 -145)"><path class="cls-1" d="M408.17,503.21c0-7.12-4.32-15.39-9.66-18.47-3-1.73-5.67-1.43-7.44.4-1.77-3.88-4.44-7.26-7.44-9-5.34-3.08-9.66.19-9.66,7.31a24,24,0,0,0,2.95,11h0l14.15,27.17v0l14.15-10.83h0c1.82-1.29,2.95-3.91,2.95-7.55"/></clipPath><clipPath id="clip-path-79" transform="translate(-345 -145)"><path class="cls-1" d="M668.85,524.4,511.73,433.69a3.26,3.26,0,0,0-3.32-.26h0l-4,2.33,2.28,3.31V570.9c0,3.73,2.29,8.1,5.08,9.71L664.87,669l3.33,4.84,4-2.31h0c1.06-.63,1.73-2.06,1.73-4.07V534.11c0-3.73-2.29-8.1-5.08-9.71"/></clipPath><clipPath id="clip-path-81" transform="translate(-345 -145)"><path class="cls-1" d="M664.81,526.73,507.7,436c-2.8-1.61-5.09.12-5.09,3.84v3.61l167.28,96.58v-3.61c0-3.73-2.28-8.1-5.08-9.71"/></clipPath><clipPath id="clip-path-83" transform="translate(-345 -145)"><path class="cls-1" d="M502.61,442.47V572.23c0,3.73,2.29,8.1,5.09,9.72l157.11,90.71c2.8,1.61,5.08-.12,5.08-3.85V539.05l-83.63,13.48Z"/></clipPath><clipPath id="clip-path-85" transform="translate(-345 -145)"><polygon class="cls-1" points="586.25 552.53 669.89 539.05 502.61 442.47 586.25 552.53"/></clipPath><clipPath id="clip-path-87" transform="translate(-345 -145)"><path class="cls-1" d="M599.63,517.22c0-5.56-3.39-12-7.56-14.43-2.34-1.36-4.43-1.12-5.82.31a15.56,15.56,0,0,0-5.81-7c-4.18-2.41-7.56.15-7.56,5.71a18.76,18.76,0,0,0,2.31,8.58h0l11.06,21.24v0l11.06-8.46h0c1.43-1,2.32-3.06,2.32-5.91"/></clipPath><clipPath id="clip-path-89" transform="translate(-345 -145)"><polygon class="cls-1" points="648.83 568.24 648.83 677.64 770.35 747.8 770.35 638.4 648.83 568.24"/></clipPath><clipPath id="clip-path-91" transform="translate(-345 -145)"><rect class="cls-2" x="645.54" y="568.24" width="124.81" height="181.43"/></clipPath><clipPath id="clip-path-93" transform="translate(-345 -145)"><rect class="cls-2" x="645" y="568" width="126" height="182"/></clipPath><clipPath id="clip-path-94" transform="translate(-345 -145)"><polyline class="cls-1" points="645.54 570.11 648.83 568.24 770.35 747.8 767.07 749.67"/></clipPath><clipPath id="clip-path-96" transform="translate(-345 -145)"><polygon class="cls-1" points="767.07 749.67 645.54 679.51 645.54 570.11 767.07 640.27 767.07 749.67"/></clipPath><clipPath id="clip-path-98" transform="translate(-345 -145)"><path class="cls-1" d="M687.48,622.36c0-6.4-3.89-13.83-8.69-16.61-2.69-1.55-5.09-1.29-6.69.37-1.59-3.5-4-6.53-6.69-8.09-4.8-2.77-8.69.17-8.69,6.57a21.56,21.56,0,0,0,2.66,9.87h0L672.1,638.9v0l12.73-9.74h0c1.64-1.17,2.66-3.53,2.66-6.8"/></clipPath><clipPath id="clip-path-100" transform="translate(-345 -145)"><rect class="cls-2" x="676" y="514.39" width="29.16" height="9.2"/></clipPath><clipPath id="clip-path-102" transform="translate(-345 -145)"><rect class="cls-2" x="675" y="514" width="31" height="12"/></clipPath><clipPath id="clip-path-103" transform="translate(-345 -145)"><path class="cls-1" d="M697.27,518.33c-3.17.12-4.44.9-10.81,3.12l-.51.13c0,.15,0,.31,0,.47,0-.16,0-.32,0-.47-6.06,1.49-8.79-1-9.85-2.45a5.22,5.22,0,0,0-.08,1.5c.62,1.81,6.29,4.54,12.82,1.8,5-2,6.17-3,8.14-3.12s6,.29,8.18-2.87c0-.75,0-1.43,0-2.05-1.55,2.94-5,3.83-7.85,3.94"/></clipPath><clipPath id="clip-path-104" transform="translate(-345 -145)"><rect class="cls-2" x="676" y="514" width="30" height="10"/></clipPath><clipPath id="clip-path-105" transform="translate(-345 -145)"><path class="cls-1" d="M686,521.58c-.33-6.21-4.05-7-4.05-7s-5,.85-5.8,4.58c1.06,1.49,3.79,3.94,9.85,2.45"/></clipPath><clipPath id="clip-path-107" transform="translate(-345 -145)"><path class="cls-1" d="M696.69,501.52s0,3.74-1.35,5.88a3.29,3.29,0,0,1-.65.66c1,1,2.15,2.59,1.34,4.06,2.14.45,6.7.21,8.18-2.18.12-1.68,1.4-9.73,1.4-9.73Z"/></clipPath><clipPath id="clip-path-109" transform="translate(-345 -145)"><path class="cls-1" d="M696,512.12c.81-1.47-.36-3.08-1.34-4.06-2.88,2.36-12.79,6.49-12.79,6.49s3.72.82,4.05,7l.51-.13c6.37-2.22,7.64-3,10.81-3.12,2.81-.11,6.3-1,7.85-3.94-.07-2.5-.25-4-.91-4.45-1.48,2.39-6,2.63-8.18,2.18"/></clipPath><clipPath id="clip-path-111" transform="translate(-345 -145)"><path class="cls-1" d="M728.29,527.94c2.79-1.6,4.4.54,4.56,1.65,3.37-1,2.86-4.67,2.86-4.67.92-4.19,1.54-7,1.54-7l-8.14,1.6s-.4,3.58-.93,6.67a7.53,7.53,0,0,0,.11,1.71"/></clipPath><clipPath id="clip-path-113" transform="translate(-345 -145)"><path class="cls-1" d="M735.71,524.92s.51,3.68-2.86,4.67c-.16-1.11-1.77-3.25-4.56-1.65a7.53,7.53,0,0,1-.11-1.71,23.16,23.16,0,0,1-.86,3.81,64.4,64.4,0,0,1-5,9.92s5.85-1.28,8.61,4.2a14.11,14.11,0,0,0,3.14-5c.73-2.44,1.89-5.1,2.61-7.09.28-2.35.25-5.83-1-7.19"/></clipPath><clipPath id="clip-path-115" transform="translate(-345 -145)"><path class="cls-1" d="M724.18,548.36c2,0,4.69-1.94,6.76-4.2-2.76-5.48-8.61-4.2-8.61-4.2a9,9,0,0,0-1.86,6.89,4.83,4.83,0,0,0,3.71,1.51"/></clipPath><clipPath id="clip-path-117" transform="translate(-345 -145)"><rect class="cls-2" x="720.47" y="532.11" width="16.22" height="17.78"/></clipPath><clipPath id="clip-path-119" transform="translate(-345 -145)"><rect class="cls-2" x="720" y="532" width="17" height="19"/></clipPath><clipPath id="clip-path-120" transform="translate(-345 -145)"><path class="cls-1" d="M734.08,539.2a14.11,14.11,0,0,1-3.14,5c-2.07,2.26-4.72,4.16-6.76,4.2a4.83,4.83,0,0,1-3.71-1.51A3.75,3.75,0,0,0,723,549.7c3.51,1.23,10.78-3.82,12.08-10,.61-3,.61-4.43,1.17-5.42a7.84,7.84,0,0,0,.49-2.18c-.72,2-1.88,4.65-2.61,7.09"/></clipPath><clipPath id="clip-path-121" transform="translate(-345 -145)"><rect class="cls-2" x="720" y="532" width="17" height="18"/></clipPath><clipPath id="clip-path-122" transform="translate(-345 -145)"><path class="cls-1" d="M729.52,449.05l20.35,11.48s4.31-18.63-20.35-11.48"/></clipPath><clipPath id="clip-path-124" transform="translate(-345 -145)"><path class="cls-1" d="M770.69,444.2s.9,7-1.5,11.19-14.11,18.48-20.27,23.49c-.5,2.14-8.14,37.8-9.45,41.5-1.73,2.47-9.44,3.45-11.87-1.4,1.43-8.13,8.32-41.31,9.65-45.11s17-18.41,6.53-23.71a11.5,11.5,0,0,0-11.09.62l-23.49,17-1.91,33.69s-3.08,4.31-9.24,2.59c-2.22-.74-3.21-3.95-3.21-3.95l2.47-42L714,443.54s22.19-6.18,22.43-7.89"/></clipPath><clipPath id="clip-path-126" transform="translate(-345 -145)"><path class="cls-1" d="M730.84,400.3s.82,13.91,1.93,21.16C733,424.08,711.5,443,711.5,443l4.54,3.4s22.47-16,23.58-19.72-.19-24.74-.19-24.74Z"/></clipPath><clipPath id="clip-path-128" transform="translate(-345 -145)"><path class="cls-1" d="M734.78,385.53s-2.34-.81-3.12,1c-1.14,2.6-.86,8.64-.82,13.79.74.74,5.35,2.09,8,2.09s-4-16.86-4-16.86"/></clipPath><clipPath id="clip-path-130" transform="translate(-345 -145)"><path class="cls-1" d="M762.39,417.82a14.71,14.71,0,0,0-.9-3.22c0,15.07-4.66,25.56-7.77,30.89a35.64,35.64,0,0,0,9.71.74l4.65-17.15s-5.66-10.79-5.69-11.26"/></clipPath><clipPath id="clip-path-132" transform="translate(-345 -145)"><path class="cls-1" d="M769.21,400.56c-8.3-8.21-19.49-13.74-19.49-13.74-6.18-2.72-12.72-1.71-14.94-1.29s4.27,27.61,4.27,27.61,4.7,7.56,18.66,7.62c-1.5,1.08-11.06,1.86-18.9-5.31-.47,4.57-1.57,14.76-2.39,20.2a32.45,32.45,0,0,0,17.3,9.84c3.11-5.33,7.77-15.82,7.77-30.89a14.71,14.71,0,0,1,.9,3.22c0,.47,5.69,11.26,5.69,11.26l-4.65,17.15c4-.27,6.85-1.24,7.26-2,0-3.12,3.29-39.36-1.48-43.64"/></clipPath><clipPath id="clip-path-134" transform="translate(-345 -145)"><path class="cls-1" d="M757.71,420.76c-14-.06-18.66-7.62-18.66-7.62s-.08.88-.24,2.31c7.84,7.17,17.4,6.39,18.9,5.31"/></clipPath><clipPath id="clip-path-136" transform="translate(-345 -145)"><path class="cls-1" d="M748.83,379s-1.06,6,1.52,8.69,5.3,5.75,1.32,8.1-12.68,1.08-12-6.53S748.83,379,748.83,379"/></clipPath><clipPath id="clip-path-138" transform="translate(-345 -145)"><path class="cls-1" d="M752.18,462.56v-1.29l-1.21-.1-30.58-17.65a5.49,5.49,0,0,0-5,.2l-3.1,1.79L694.17,456l-.65.37-2-.16v1.32l2.3,1.33,30.93,17.86,2.3,1.33,2.66-1.54L747.86,466l3.1-1.79c.83-.48,1.25-1.1,1.21-1.68Z"/></clipPath><clipPath id="clip-path-140" transform="translate(-345 -145)"><path class="cls-1" d="M751.32,460l-30.93-17.85a5.52,5.52,0,0,0-5,.2l-3.1,1.79-18.16,10.49-2.66,1.54,2.3,1.32,30.93,17.86,2.3,1.33,2.66-1.54,18.16-10.48,3.1-1.79c1.47-.85,1.63-2.13.36-2.87"/></clipPath><clipPath id="clip-path-142" transform="translate(-345 -145)"><path class="cls-1" d="M737.27,465.28l-17-9.79a3,3,0,0,0-2.72.11l-1.7,1-10,5.75-1.46.85,1.26.72,17,9.8,1.27.72,1.45-.84,10-5.75,1.7-1c.8-.47.89-1.17.19-1.57"/></clipPath><clipPath id="clip-path-144" transform="translate(-345 -145)"><path class="cls-1" d="M728.92,459.16l-9.51-5.49c-.75-.43-.65-1.2.21-1.7l6.15-3.55a3.29,3.29,0,0,1,2.94-.12l9.51,5.49c.75.43.66,1.2-.21,1.7L731.86,459a3.29,3.29,0,0,1-2.94.12"/></clipPath><clipPath id="clip-path-146" transform="translate(-345 -145)"><path class="cls-1" d="M726.21,363.25s-1.48,4.81-.8,8.39c-.55,2.59-3.51,15.71,4.87,18.67,7.21,1.67,15-2.59,18.55-11.34a5,5,0,0,0,5.8-4.87,43.33,43.33,0,0,0-1.24-9.12l-.61-7.52-14.3-3.64Z"/></clipPath><clipPath id="clip-path-148" transform="translate(-345 -145)"><path class="cls-1" d="M752.78,357.46a11.26,11.26,0,0,0-7.64,3.45c-3.58,3.58-18.49,9-22.93,1.48,1.85-1,3.33-4.19,6.16-7,3.33-4.75,20.34-10.11,24.41,2.09"/></clipPath><clipPath id="clip-path-150" transform="translate(-345 -145)"><path class="cls-1" d="M752.78,357.46s-5,1.54-6.9,4.62a32.94,32.94,0,0,1-3,3,5.44,5.44,0,0,1,2.34,4.13c0,2.59-.5,5.86,2.62,8.32,0-2.22,1.82-5.79,3.85-5.91s3,2.52,3,2.52,6.12-9.48-1.85-16.64"/></clipPath><clipPath id="clip-path-152" transform="translate(-345 -145)"><rect class="cls-2" x="720.42" y="417.82" width="51.38" height="40.96"/></clipPath><clipPath id="clip-path-154" transform="translate(-345 -145)"><rect class="cls-2" x="719" y="417" width="53" height="42"/></clipPath><clipPath id="clip-path-155" transform="translate(-345 -145)"><path class="cls-1" d="M771.8,417.82a14.42,14.42,0,0,1-9.41,0c.33,5.43,0,15.12-2.38,21.94-.9.83-22.6,1.4-26,3s-7.93,3.05-9.29,3.11,1,1.66,2.47,1c-1.17,2-5.92,8.88-6.53,10.42s.49,1.54.92,1.29a47.92,47.92,0,0,0,3.2-4.49s1.92,2.71,4.87,2.34c1.91-.37,4.5-6.6,6.54-7.58,2-.74,27.62-.25,29.89-3.39s5.91-21.48,5.77-27.72"/></clipPath><clipPath id="clip-path-156" transform="translate(-345 -145)"><rect class="cls-2" x="720" y="417" width="52" height="42"/></clipPath><clipPath id="clip-path-157" transform="translate(-345 -145)"><path class="cls-1" d="M727.6,476.43l-.2-3.19L726,451.48l-.23-3.71a6.13,6.13,0,0,0-2.5-4.51L692.38,425.4a1.5,1.5,0,0,0-1.21-.21h0a1,1,0,0,0-.23.12l-.41.2.09.13a2.53,2.53,0,0,0-.33,1.62l.23,3.71,1.36,21.76.2,3.18,2.3,1.33,30.92,17.86,1,.58.73,1Z"/></clipPath><clipPath id="clip-path-159" transform="translate(-345 -145)"><path class="cls-1" d="M722.75,443.54l-30.92-17.85c-1.27-.74-2.22.1-2.11,1.85l.24,3.72L691.31,453l.2,3.18,2.31,1.33,30.92,17.86,2.3,1.33-.2-3.19-1.35-21.76-.23-3.71a6.14,6.14,0,0,0-2.51-4.52"/></clipPath><clipPath id="clip-path-161" transform="translate(-345 -145)"><path class="cls-1" d="M709.75,451.1c-.37,1.49-2.11,2-3.88,1.14s-2.92-2.77-2.56-4.26,2.11-2,3.88-1.14,2.92,2.77,2.56,4.26"/></clipPath></defs><title>Ativo 1</title><g id="Camada_2" data-name="Camada 2"><g id="Layer_1" data-name="Layer 1"><g class="cls-3"><g class="cls-4"><rect class="cls-5" x="259.21" width="212.56" height="520.43"/></g></g><g class="cls-6"><g class="cls-4"><rect class="cls-5" x="254.13" width="217.64" height="523.35"/></g></g><g class="cls-7"><g class="cls-4"><rect class="cls-8" x="254.13" y="2.91" width="212.56" height="520.43"/></g></g><g class="cls-9"><g class="cls-4"><rect class="cls-10" x="254.13" y="2.91" width="212.55" height="201.87"/></g></g><g class="cls-11"><g class="cls-4"><rect class="cls-12" x="338.82" y="79.61" width="38.97" height="49.48"/></g></g><g class="cls-13"><g class="cls-4"><rect class="cls-14" x="156.81" y="292.99" width="134.11" height="113.95"/></g></g><g class="cls-15"><g class="cls-4"><rect class="cls-16" x="145.45" y="299.56" width="134.11" height="113.95"/></g></g><g class="cls-17"><g class="cls-4"><rect class="cls-18" x="292.64" y="251.16" width="218.29" height="287.72"/></g></g><g class="cls-19"><g class="cls-4"><rect class="cls-20" x="473.63" y="251.16" width="37.3" height="303.5"/></g></g><g class="cls-21"><g class="cls-4"><rect class="cls-22" x="265.34" y="266.95" width="218.29" height="287.72"/></g></g><g class="cls-23"><g class="cls-4"><rect class="cls-14" x="442.47" y="511.81" width="13.76" height="27.04"/></g></g><g class="cls-24"><g class="cls-4"><rect class="cls-14" x="413.03" y="494.81" width="13.76" height="27.04"/></g></g><g class="cls-25"><g class="cls-4"><rect class="cls-14" x="383.6" y="477.82" width="13.76" height="27.04"/></g></g><g class="cls-26"><g class="cls-4"><rect class="cls-14" x="354.16" y="460.82" width="13.76" height="27.04"/></g></g><g class="cls-27"><g class="cls-4"><rect class="cls-14" x="324.72" y="443.82" width="13.76" height="27.04"/></g></g><g class="cls-28"><g class="cls-4"><rect class="cls-14" x="295.29" y="426.83" width="13.76" height="27.04"/></g></g><g class="cls-29"><g class="cls-4"><rect class="cls-14" x="462.48" y="300.44" width="21.15" height="21.45"/></g></g><g class="cls-30"><g class="cls-4"><rect class="cls-14" x="462.48" y="339.69" width="21.15" height="21.45"/></g></g><g class="cls-31"><g class="cls-4"><rect class="cls-14" x="462.48" y="378.94" width="21.15" height="21.45"/></g></g><g class="cls-32"><g class="cls-4"><rect class="cls-14" x="462.48" y="418.18" width="21.15" height="21.45"/></g></g><g class="cls-33"><g class="cls-4"><rect class="cls-14" x="462.48" y="457.43" width="21.15" height="21.45"/></g></g><g class="cls-34"><g class="cls-4"><rect class="cls-14" x="462.48" y="496.68" width="21.15" height="21.45"/></g></g><g class="cls-35"><g class="cls-4"><rect class="cls-14" x="42.96" y="407.49" width="26.76" height="29.68"/></g></g><g class="cls-36"><g class="cls-4"><rect class="cls-37" x="21.57" y="397.01" width="25.3" height="25.16"/></g></g><g class="cls-38"><g class="cls-4"><rect class="cls-16" x="50.9" y="412.08" width="170.37" height="112.79"/></g></g><g class="cls-39"><g class="cls-4"><rect class="cls-14" x="201.43" y="498.99" width="56.69" height="47.15"/></g></g><g class="cls-40"><g class="cls-4"><rect class="cls-16" x="28.14" y="398.94" width="34.66" height="34.43"/></g></g><g class="cls-41"><g class="cls-4"><rect class="cls-42" x="238.27" y="520.26" width="41.06" height="33.29"/></g></g><g class="cls-43"><g class="cls-4"><rect class="cls-44" x="181.05" y="356.1" width="10.03" height="10.02"/></g></g><g class="cls-45"><g class="cls-4"><rect class="cls-46" x="180.93" y="356.12" width="10.13" height="10.07"/></g></g><g class="cls-47"><g class="cls-4"><rect class="cls-48" x="8.84" y="292.66" width="79.68" height="120.01"/></g></g><g class="cls-49"><g class="cls-4"><rect class="cls-50" x="78.51" y="286.44" width="90.45" height="126.23"/></g></g><g class="cls-51"><g class="cls-4"><g class="cls-52"><g class="cls-53"><g class="cls-54"><g class="cls-53"><rect class="cls-48" y="225.26" width="177.81" height="106.88"/></g></g></g></g></g></g><g class="cls-55"><g class="cls-4"><g class="cls-52"><g class="cls-56"><g class="cls-57"><g class="cls-56"><rect class="cls-58" y="277.18" width="87.88" height="70.81"/></g></g></g></g></g></g><g class="cls-59"><g class="cls-4"><rect class="cls-60" x="77.88" y="270.23" width="99.93" height="77.77"/></g></g><g class="cls-61"><g class="cls-4"><rect class="cls-62" x="23.97" y="324.99" width="44.21" height="56.61"/></g></g><g class="cls-63"><g class="cls-4"><rect class="cls-64" x="154.37" y="283.09" width="179.56" height="250.79"/></g></g><g class="cls-65"><g class="cls-4"><rect class="cls-66" x="152.61" y="285.41" width="177.28" height="114.63"/></g></g><g class="cls-67"><g class="cls-4"><rect class="cls-68" x="152.62" y="292.47" width="177.28" height="240.79"/></g></g><g class="cls-69"><g class="cls-4"><rect class="cls-66" x="152.61" y="292.47" width="177.28" height="120.06"/></g></g><g class="cls-70"><g class="cls-4"><rect class="cls-62" x="222.88" y="345.16" width="36.75" height="46.44"/></g></g><g class="cls-71"><g class="cls-4"><rect class="cls-37" x="298.83" y="418.24" width="131.52" height="189.56"/></g></g><g class="cls-72"><g class="cls-4"><g class="cls-52"><g class="cls-73"><g class="cls-74"><g class="cls-73"><rect class="cls-37" x="295.54" y="418.24" width="134.81" height="191.43"/></g></g></g></g></g></g><g class="cls-75"><g class="cls-4"><rect class="cls-14" x="295.54" y="420.11" width="131.52" height="189.56"/></g></g><g class="cls-76"><g class="cls-4"><rect class="cls-77" x="306.72" y="446.99" width="40.76" height="51.91"/></g></g><g class="cls-78"><g class="cls-4"><g class="cls-52"><g class="cls-79"><g class="cls-80"><g class="cls-81"><rect class="cls-82" x="326" y="364.39" width="39.16" height="19.2"/></g></g></g></g></g></g><g class="cls-83"><g class="cls-4"><rect class="cls-84" x="326.1" y="364.55" width="19.85" height="17.5"/></g></g><g class="cls-85"><g class="cls-4"><rect class="cls-86" x="344.69" y="350.21" width="20.92" height="22.1"/></g></g><g class="cls-87"><g class="cls-4"><rect class="cls-88" x="331.9" y="358.06" width="33.22" height="23.52"/></g></g><g class="cls-89"><g class="cls-4"><rect class="cls-86" x="378.18" y="367.96" width="19.07" height="21.63"/></g></g><g class="cls-90"><g class="cls-4"><rect class="cls-88" x="372.33" y="374.92" width="24.5" height="29.24"/></g></g><g class="cls-91"><g class="cls-4"><rect class="cls-84" x="370.34" y="389.83" width="20.6" height="18.53"/></g></g><g class="cls-92"><g class="cls-4"><g class="cls-52"><g class="cls-93"><g class="cls-94"><g class="cls-95"><rect class="cls-82" x="370.47" y="382.11" width="26.22" height="27.78"/></g></g></g></g></g></g><g class="cls-96"><g class="cls-4"><rect class="cls-97" x="379.52" y="297.42" width="30.64" height="23.12"/></g></g><g class="cls-98"><g class="cls-4"><rect class="cls-82" x="344.84" y="285.65" width="86.02" height="96.77"/></g></g><g class="cls-99"><g class="cls-4"><rect class="cls-86" x="361.5" y="250.3" width="38.57" height="56.12"/></g></g><g class="cls-100"><g class="cls-4"><rect class="cls-101" x="380.78" y="235.34" width="18.65" height="27.05"/></g></g><g class="cls-102"><g class="cls-4"><rect class="cls-101" x="403.72" y="264.6" width="24.36" height="41.7"/></g></g><g class="cls-103"><g class="cls-4"><rect class="cls-104" x="384.32" y="235" width="47.48" height="71.23"/></g></g><g class="cls-105"><g class="cls-4"><rect class="cls-101" x="388.82" y="263.14" width="28.89" height="18.32"/></g></g><g class="cls-106"><g class="cls-4"><rect class="cls-107" x="389.62" y="228.97" width="24.07" height="27.85"/></g></g><g class="cls-108"><g class="cls-4"><rect class="cls-109" x="341.51" y="293.02" width="70.67" height="45.03"/></g></g><g class="cls-110"><g class="cls-4"><rect class="cls-111" x="341.51" y="291.69" width="70.67" height="45.03"/></g></g><g class="cls-112"><g class="cls-4"><rect class="cls-113" x="354.47" y="305.21" width="43.27" height="29.21"/></g></g><g class="cls-114"><g class="cls-4"><rect class="cls-115" x="368.91" y="298.01" width="29.82" height="21.44"/></g></g><g class="cls-116"><g class="cls-4"><rect class="cls-86" x="374.46" y="203.82" width="40.18" height="46.84"/></g></g><g class="cls-117"><g class="cls-4"><rect class="cls-118" x="372.21" y="200" width="40.57" height="26.17"/></g></g><g class="cls-119"><g class="cls-4"><rect class="cls-118" x="392.86" y="207.46" width="24.02" height="30.03"/></g></g><g class="cls-120"><g class="cls-4"><g class="cls-52"><g class="cls-121"><g class="cls-122"><g class="cls-123"><rect class="cls-86" x="370.42" y="267.82" width="61.38" height="50.96"/></g></g></g></g></g></g><g class="cls-124"><g class="cls-4"><rect class="cls-111" x="340.27" y="275.14" width="47.33" height="61.58"/></g></g><g class="cls-125"><g class="cls-4"><rect class="cls-126" x="339.72" y="275.42" width="47.33" height="61.29"/></g></g><g class="cls-127"><g class="cls-4"><rect class="cls-62" x="353.24" y="296.42" width="16.57" height="16.24"/></g></g></g></g></svg>