<svg xmlns="http://www.w3.org/2000/svg" xmlns:xlink="http://www.w3.org/1999/xlink" viewBox="0 0 404.13 488.19"><defs><style>.cls-1{fill:none;}.cls-2{fill:#36475d;}.cls-3{fill:#7d90aa;}.cls-4{fill:#858fa1;}.cls-5{fill:#2e50a5;}.cls-6{fill:#aeb9ca;}.cls-7{fill:#4985fe;}.cls-8{fill:#d0e8fe;}.cls-9{fill:#00b4fe;}.cls-10{opacity:0.59;}.cls-11{clip-path:url(#clip-path);}.cls-12{clip-path:url(#clip-path-2);}.cls-13{fill:#ffe873;}.cls-14{opacity:0.5;}.cls-15{clip-path:url(#clip-path-3);}.cls-16{fill:#fff;}.cls-17{fill:#3c3e53;}.cls-18{fill:#035c69;}.cls-19{fill:#184042;}.cls-20{fill:#f9c2bd;}.cls-21{fill:#f4f5f5;}.cls-22{fill:#f8b3b0;}.cls-23{fill:#49494a;}.cls-24{fill:#0cb3b3;}.cls-25{fill:#ae9ecc;}.cls-26{fill:#027787;}.cls-27{fill:#ebeff8;}.cls-28{fill:#cdd6e9;}.cls-29{fill:#f4f6fb;}.cls-30{fill:#e0e8f5;}.cls-31{fill:#7b96cd;}.cls-32{fill:#eea987;}.cls-33{fill:#b18962;}.cls-34{fill:#6160aa;}.cls-35{fill:#c4c3e2;}.cls-36{fill:#f2f2f2;}.cls-37{fill:#5d7b90;}.cls-38{fill:#d0cfe8;}.cls-39{fill:#e69d7a;}.cls-40{fill:#23180e;}.cls-41{fill:#d6d5dc;}.cls-42{fill:#466b81;}.cls-43{fill:#edf7f9;}.cls-44{fill:#acc7e7;}.cls-45{fill:#c8e1f5;}.cls-46{fill:#a9c9ea;}.cls-47{fill:#323d73;}.cls-48{fill:#d7ecf9;}</style><clipPath id="clip-path"><rect class="cls-1" x="154.88" y="0.09" width="76.24" height="98.19" transform="translate(-0.12 0.47) rotate(-0.14)"/></clipPath><clipPath id="clip-path-2"><path class="cls-1" d="M154.51,38.29a38,38,0,1,1,64.57,27.16v.08a26.75,26.75,0,0,0-6.61,23h0v.27c0,.28-.11.55-.28.39h-.05A26.64,26.64,0,0,1,174,90.37c-.23-.23-.46-.45-.68-.68,0,0-.07,0-.09.5h-.06a8.57,8.57,0,0,1-.26-1.34.33.33,0,0,1,0-.14h0a28,28,0,0,0,.42-4.83,27,27,0,0,0-7.13-18.2h0a37.87,37.87,0,0,1-11.72-27.39"/></clipPath><clipPath id="clip-path-3"><polygon class="cls-1" points="225.1 61.19 208 61.23 207.91 24.19 225 24.15 225.1 61.19"/></clipPath></defs><title>Ativo 1</title><g id="Camada_2" data-name="Camada 2"><g id="Camada_1-2" data-name="Camada 1"><path id="_Caminho_" data-name=" Caminho " class="cls-2" d="M183,116.42a10.21,10.21,0,1,0,10.19-10.23h0A10.18,10.18,0,0,0,183,116.42h0"/><path id="_Caminho_2" data-name=" Caminho 2" class="cls-3" d="M173.78,106.51c0,6,8.51,10.85,19,10.82s18.91-4.91,18.89-10.9-8.49-10.85-18.95-10.83-18.91,4.91-18.9,10.91"/><path id="_Caminho_3" data-name=" Caminho 3" class="cls-4" d="M174,106.19v.1h0a.08.08,0,0,0,0,.07"/><path id="_Caminho_4" data-name=" Caminho 4" class="cls-5" d="M193,117.3c10.27,0,18.61-4.73,19-10.58v3.6c0,6-8.48,10.93-19,11s-19-4.84-19-10.87v-3.82c.14,6,8.61,10.73,19,10.71"/><path id="_Caminho_5" data-name=" Caminho 5" class="cls-6" d="M172.09,97.9c0,6.54,9.24,11.81,20.63,11.78s20.59-5.35,20.58-11.87S204,86,192.67,86s-20.6,5.34-20.58,11.87"/><path id="_Caminho_6" data-name=" Caminho 6" class="cls-4" d="M172,98.19v-.53h0v.08"/><path id="_Caminho_7" data-name=" Caminho 7" class="cls-7" d="M192.52,109.66c11.09,0,20.11-5.09,20.48-11.41v5.22c0,6.51-9.15,11.8-20.47,11.82S172,110.07,172,103.56V98.1c.15,6.44,9.29,11.59,20.52,11.56"/><path id="_Caminho_8" data-name=" Caminho 8" class="cls-8" d="M170.56,87.36c0,7,9.93,12.66,22.14,12.64s22.09-5.71,22.07-12.71-9.93-12.66-22.13-12.63-22.09,5.73-22.08,12.74"/><path id="_Caminho_9" data-name=" Caminho 9" class="cls-4" d="M171,87.19V87.1h0v.09"/><path id="_Caminho_10" data-name=" Caminho 10" class="cls-9" d="M193,100c11.95,0,21.59-5.48,22-12.26v7.19c0,7-9.81,12.65-22,12.68S171,102,171,95V87.57c.16,6.9,9.95,12.45,22,12.42"/><g id="Camada_2-2" data-name="Camada 2"><g id="Camada_1-2-2" data-name="Camada 1-2"><g id="_Grupo_" data-name=" Grupo "><g id="_Grupo_2" data-name=" Grupo 2"><g id="_Grupo_5" data-name=" Grupo 5" class="cls-10"><g class="cls-11"><g id="_Grupo_de_clipes_7" data-name=" Grupo de clipes 7"><g id="_Grupo_de_clipes_8" data-name=" Grupo de clipes 8"><g class="cls-12"><rect id="_Caminho_15" data-name=" Caminho 15" class="cls-13" x="154.88" y="0.09" width="76.24" height="98.19" transform="translate(-0.12 0.47) rotate(-0.14)"/></g></g></g></g></g><g id="_Grupo_6" data-name=" Grupo 6" class="cls-14"><g id="_Grupo_de_clipes_9" data-name=" Grupo de clipes 9"><g class="cls-15"><path id="_Caminho_16" data-name=" Caminho 16" class="cls-16" d="M224.43,30s-.83-10-5.73-3c-4.3,6.06,1.87,23.38-7.35,27.23S213.89,67,220,56.69s4.45-26.6,4.45-26.6"/></g></g></g></g><g id="_Grupo_7" data-name=" Grupo 7"><g id="_Grupo_8" data-name=" Grupo 8"><path id="_Caminho_17" data-name=" Caminho 17" class="cls-16" d="M325.85,84a8.27,8.27,0,1,1-8.27-8.27h0A8.27,8.27,0,0,1,325.85,84"/><path id="_Caminho_18" data-name=" Caminho 18" d="M365.83,433.62h0s1.12,18,2.24,26.62,3.19,27.33-10.71,27.95c-8.13-.62-11.83-8.5-10.71-18s.59-31-.2-33.92h0c7.06,1.58,14.54.19,19.35-2.68"/><path id="_Caminho_19" data-name=" Caminho 19" d="M321.16,408h0s1.35,5,2.22,7.71,2,11.94-1.11,13.67-15.52,4.93-17.49,6.16-9.72,12.43-28.69,8c-5.41-2-2.09-10.83,5.49-15s18.78-11.06,18.84-17.48c4.53,1.82,12.45,3.3,20.72-3"/><path id="_Caminho_20" data-name=" Caminho 20" class="cls-17" d="M316,291.19v0"/><path id="_Caminho_24" data-name=" Caminho 24" class="cls-17" d="M316,285.19v0"/><path id="_Caminho_25" data-name=" Caminho 25" class="cls-17" d="M316,312.19v0"/><path id="_Caminho_27" data-name=" Caminho 27" class="cls-17" d="M316,305.19v0"/><path id="_Caminho_28" data-name=" Caminho 28" class="cls-17" d="M317.84,268.29l.09-.53-.09.53"/><path id="_Caminho_29" data-name=" Caminho 29" class="cls-18" d="M334.21,242.79c.34.56,23.51,1.45,27.25-2.25,1.22,23-2.81,86.56-1.75,103.11,1.23,19.21,6.4,58.85,9.11,87.65a13.76,13.76,0,0,1-3,2.32c-4.81,2.87-12.29,4.26-19.35,2.68a26,26,0,0,1-3.47-1c-3-8.86-26-107.23-31.64-167.5h0l4.48,47.81h0c.91,32.73,4.68,69.87,6.41,91.56-.35.3-.7.57-1.06.84-8.27,6.34-16.19,4.86-20.72,3a19.33,19.33,0,0,1-3.89-2s-10-65.94-12.73-89.57S281.67,217,281.67,217c2.84,11.58,29.95,25,52.57,25.86"/><path id="_Caminho_33" data-name=" Caminho 33" class="cls-17" d="M317.07,273.4l.08-.59Z"/><path id="_Caminho_34" data-name=" Caminho 34" class="cls-17" d="M316.47,279a2.25,2.25,0,0,1,.06-.63,2.25,2.25,0,0,1-.06.63"/><path id="_Caminho_35" data-name=" Caminho 35" class="cls-19" d="M311.33,267.75l7-2.09c-.15.67-.28,1.38-.42,2.09l-.09.53c-.13.72-.25,1.46-.37,2.21h0c-.11.76-.22,1.53-.32,2.32l-.08.59c-.11.8-.2,1.6-.29,2.42h0c-.09.82-.17,1.67-.25,2.52a2.25,2.25,0,0,1-.06.63c-.07.86-.14,1.73-.21,2.62h0a8.89,8.89,0,0,1-1.24,2.68V285a8,8,0,0,1,.92,2.79h0c0,.94.08,2.85.08,2.85v.71s-.18,1.95-.26,2.95h0a12.6,12.6,0,0,1-.74,3v11a10.17,10.17,0,0,1,1,3.19v.77a24.67,24.67,0,0,0-.17,3.28Z"/><path id="_Caminho_36" data-name=" Caminho 36" class="cls-20" d="M193.69,226.88c3.6-4.25,9.05-5.24,15.45-11-10.83-2.09-7.75-6-4.93-5.53,5.31.86,13.92-1,18.72-2.71,0,0,26.53-31.33,30-36.08S269.17,134,269.17,134c4.56,5.66,13.49,7.93,13.49,7.93s1.17,8.12,1.65,16.32h0s-6.14,13.41-11.8,23.26-27.3,23.75-41.64,35.55c-5,10.06-19.36,12.37-23.14,14.68s-7.85.65-11,.28-5.81-1.48-3-5.17"/><path id="_Caminho_37" data-name=" Caminho 37" class="cls-21" d="M284,170.19v0"/><path id="_Caminho_38" data-name=" Caminho 38" class="cls-21" d="M284,172.19v0"/><path id="_Caminho_39" data-name=" Caminho 39" class="cls-21" d="M284,173.19v0"/><path id="_Caminho_40" data-name=" Caminho 40" class="cls-21" d="M284,169.19v0"/><path id="_Caminho_41" data-name=" Caminho 41" class="cls-21" d="M284,175a.28.28,0,0,0,0,.13.28.28,0,0,1,0-.13"/><path id="_Caminho_42" data-name=" Caminho 42" class="cls-21" d="M285,167.19v0"/><path id="_Caminho_43" data-name=" Caminho 43" class="cls-21" d="M284,168.19v0"/><path id="_Caminho_46" data-name=" Caminho 46" class="cls-22" d="M331.4,130.9c-12.44,6.53-28.69-4.84-23.52-17.32h0c14.33.34,25.49-12.53,27.27-18.56,0,0-1.2,9.78-.26,14.49a4,4,0,0,0,.94,2.19c2.46,2.21,8,12.68-4.43,19.2"/><path id="_Caminho_47" data-name=" Caminho 47" class="cls-23" d="M339.77,81.83c-4.62-.37-6.65,5.36-6.65,5.36l-2.21-.37c1.47-10.71-3-17-8.51-18.1s-15.87-1.48-19.75-6.28c-2.14-1.87-3-8.25-.68-10.22,3.69,1.35,17.12-7.14,29.3-4.68,33.61,6.9,12.5,39.65,12.5,39.65h-.07a4.49,4.49,0,0,0-3.49-5.31,3.11,3.11,0,0,0-.44-.07"/><path id="_Caminho_48" data-name=" Caminho 48" class="cls-20" d="M307.88,113.58a10.16,10.16,0,0,1-1.73-.1c-6.18-.55-9.91-9-11-16.33a24.7,24.7,0,0,1-.26-6.19c.74-7.39-1.48-20.13,7.76-28.63,3.88,4.8,14.22,5.17,19.75,6.28s10,7.38,8.51,18.1l2.21.37s2-5.73,6.65-5.36a4.48,4.48,0,0,1,4,4.93,3.47,3.47,0,0,1-.06.45c-.43,2.57-2.81,5.57-8.55,7.92-1.78,6-12.94,18.89-27.27,18.56"/><path id="_Caminho_49" data-name=" Caminho 49" class="cls-24" d="M363.22,127.29c-7.4-7-28.89-17.82-28.89-17.82a4,4,0,0,0,.94,2.19c2.46,2.21,8,12.68-4.43,19.2s-28.69-4.84-23.52-17.32h0a11.28,11.28,0,0,1-1.73-.09c-6.18-.57-9.91-9.06-11-16.34-16.74-4.33-21.31,15-27.59,34.25a12,12,0,0,0,1.64,2.6c4.57,5.66,13.5,7.93,13.5,7.93s1.17,8.13,1.65,16.32c.11,1.87.19,3.73.21,5.51v4.63a3.38,3.38,0,0,1,1,.86v.34l-1,1v.33l1,1.06v.3s-.7.79-1,1.19v.23a2.16,2.16,0,0,1,.15,1.35.28.28,0,0,0,0,.13c0,.5-.09,1-.14,1.52-1.09,12.28-2.95,29.38-2.41,38.77a11.35,11.35,0,0,0,.23,1.5c2.55,16,51.4,32.87,68.26,26.18,4.13-1.63.91-8.11.89-13.52-.05-10-.83-20.63-1.66-28.75-.22-2.11-.38-4.4-.5-6.79-.18-3.54-.26-7.29-.27-10.86h0c-.05-13.73.77-27,.77-27L359,167.55a25.92,25.92,0,0,0,4.12-.42,30.75,30.75,0,0,0,8-3.08h0a25.06,25.06,0,0,0,5.2-4.32,1.55,1.55,0,0,1,.24-.27l.12-.13c.66-.77,1.22-1.48,1.65-2.07l.17-.24h0a22.71,22.71,0,0,0,2.21-3.82s-9.61-18.66-17-25.68"/><path id="_Caminho_50" data-name=" Caminho 50" class="cls-25" d="M357.44,181.11l-.26.1.26-.1"/><path id="_Caminho_51" data-name=" Caminho 51" class="cls-25" d="M355.8,192.77l-.92.22.92-.22"/><path id="_Caminho_52" data-name=" Caminho 52" class="cls-25" d="M352,182.19h0"/><path id="_Caminho_53" data-name=" Caminho 53" class="cls-25" d="M350.17,182.86l-.54.06.54-.06"/><path id="_Caminho_54" data-name=" Caminho 54" class="cls-25" d="M353.38,193.29c-.38.08-.78.14-1.17.21.39-.07.79-.13,1.17-.21"/><path id="_Caminho_55" data-name=" Caminho 55" class="cls-25" d="M355.63,181.74l-.39.12.39-.12"/><path id="_Caminho_56" data-name=" Caminho 56" class="cls-25" d="M356.6,181.43l-.36.12.36-.12"/><path id="_Caminho_57" data-name=" Caminho 57" class="cls-25" d="M354.55,182.05l-.42.11.42-.11"/><path id="_Caminho_58" data-name=" Caminho 58" class="cls-25" d="M353.29,182.35l-.37.07.37-.07"/><path id="_Caminho_59" data-name=" Caminho 59" class="cls-25" d="M350.92,193.76c-.43.07-.85.11-1.28.17.43-.06.85-.1,1.28-.17"/><path id="_Caminho_60" data-name=" Caminho 60" class="cls-26" d="M349.75,243.24c-1.56-.51.06-34.15-.78-42.27-.21-2.11-.37-4.4-.49-6.78h0c-.18-3.54-.26-7.29-.27-11h0c0-13.73.76-27,.76-27l9.88,11.35a122.08,122.08,0,0,0-.8,13.38c0,1.78,0,3.63-.05,5.51h0v5.72c0,2.12.08,4.24.14,6.34,0,.69.05,1.38.06,2.07.33,9.59,2.36,36.35,3.1,40.07A11.64,11.64,0,0,1,349.75,243.24Z"/></g><g id="_Grupo_9" data-name=" Grupo 9"><path id="_Caminho_61" data-name=" Caminho 61" class="cls-20" d="M378.56,156.83s8.38,5.55,21.52,36.35c2.91,7.48,4.05,11.55,4.05,11.55s-1.23,7.06-7.6,9.51c-10.06,1.22-34.32,15.35-70.28,7.87-.83-3.74,2.48-10.81,2.48-10.81s35.53-8.69,48.83-10.36c-.41-3.73-7.88-9-18.58-33.53C359,167.41,370.1,167.87,378.56,156.83Z"/><g id="_Grupo_10" data-name=" Grupo 10"><path id="_Caminho_62" data-name=" Caminho 62" class="cls-20" d="M280.06,196.13c0,2.75,5.1,5,11.4,5s11.39-2.23,11.39-5-5.1-5-11.39-5S280.06,193.37,280.06,196.13Z"/><path id="_Caminho_63" data-name=" Caminho 63" class="cls-27" d="M306.82,193.41l-6.82,8.8v20.47a11.52,11.52,0,0,1-10.06,8.45A23.28,23.28,0,0,1,275,224V194.46Z"/><path id="_Caminho_64" data-name=" Caminho 64" class="cls-28" d="M300,222.72V202.17l6.85-8.83,1.29-.05s1.44,16.54,0,25.26-1.8,6-5.23,9.47a23.5,23.5,0,0,1-13,3.19A11.58,11.58,0,0,0,300,222.72Z"/><path id="_Caminho_65" data-name=" Caminho 65" class="cls-29" d="M274.31,193.29c0,5.76,7.67,10.43,17.15,10.43s17.14-4.67,17.14-10.43-7.67-10.43-17.14-10.43S274.31,187.53,274.31,193.29Z"/><path id="_Caminho_66" data-name=" Caminho 66" class="cls-30" d="M276.67,193.29c0,5,6.62,9,14.79,9s14.78-4,14.78-9-6.61-9-14.78-9S276.67,188.29,276.67,193.29Z"/><path id="_Caminho_67" data-name=" Caminho 67" class="cls-28" d="M280.06,194.54c0,3.63,5.1,6.57,11.4,6.57s11.39-2.94,11.39-6.57-5.1-6.57-11.39-6.57S280.06,190.92,280.06,194.54Z"/><path id="_Caminho_68" data-name=" Caminho 68" class="cls-31" d="M280.06,196.13c0,2.75,5.1,5,11.4,5s11.39-2.23,11.39-5-5.1-5-11.39-5S280.06,193.37,280.06,196.13Z"/><path id="_Caminho_69" data-name=" Caminho 69" class="cls-31" d="M302.68,206.47s9.34.75,8.78,9.71c-.37,3.93.75,8.79-8.78,4.11a49,49,0,0,0,0,5.42s9,5,11,0c.74-5.6,1.12-13.42,1.12-13.42s.74-8.25-11.4-10.12A26.09,26.09,0,0,0,302.68,206.47Z"/></g><g id="_Grupo_11" data-name=" Grupo 11"><path id="_Caminho_70" data-name=" Caminho 70" class="cls-20" d="M309.93,204.19h.58s-1.09-2.41,2.28-3.7c7.42,2.13,10.14,8,11.58,9.12,3.7,2.84,8.94,1.76,8.94,1.76s8.69,11.47-.31,11.47-13.43,2.77-20.67,4.21a13.44,13.44,0,0,1-1.8-.25C312,216.25,311.43,209.05,309.93,204.19Z"/><path id="_Caminho_71" data-name=" Caminho 71" class="cls-20" d="M304,213.71c-1.09-9,1.81-9.52,1.81-9.52h4.12c1.5,4.86,2,12.06.59,22.65C303.78,225.7,304,220,304,213.71Z"/></g></g></g><g id="_Grupo_12" data-name=" Grupo 12"><g id="_Grupo_13" data-name=" Grupo 13"><path id="_Caminho_72" data-name=" Caminho 72" class="cls-32" d="M158.35,177.86a8,8,0,0,0,.86-2.69,16.85,16.85,0,0,1-.86,2.69"/><path id="_Caminho_73" data-name=" Caminho 73" class="cls-33" d="M16.76,433.63c.65,4.24-2.61,20.73.65,26.82.87,2.72,9.34,9.23,20.85,8.69,15.63-1.85,2.49-21.85,1.52-26.93a30.15,30.15,0,0,1-.55-8.58c-3.25,2-14,2.61-22.47,0"/><path id="_Caminho_74" data-name=" Caminho 74" class="cls-33" d="M53.57,403.67a53.24,53.24,0,0,0,0,14.81c3.9,4.08,4.56,5.54,15.8,7,2.11-1,21.81,19.71,37.78,8.47,3.58-4.56-12.22-11.4-18.73-17.59s-7.34-8.94-7.42-11.07c-7,4.13-23.14,4.67-27.47-1.62"/><path id="_Caminho_75" data-name=" Caminho 75" class="cls-34" d="M19.75,340.47c-1.2-10.05-5.57-49.83-3.55-79.65,7.05,4.06,22,10.39,37.26,2.67,2.3-1.69,4.91-15.43,6.61-32.77,14.27-3.56,21.89-6.32,25.86-12,.69,28.91-.28,32.71-.28,32.71q2.26-.7,4.46-1.64c-1.17,27.93-4.3,62.07-7.11,74.38-.31,4.72-2.78,43.32-2,81.16-7,4.13-23.14,4.67-27.47-1.62,0,0-5.91-60.27,2.59-83.39a23.37,23.37,0,0,1,1.29-3,23.37,23.37,0,0,0-1.29,3c-1-7.12-2.48-19-3-29.8-1,14.08-3.93,42.14-6.28,53.3,1.54,11.17-6.67,79.45-7.62,89.85-3.25,2-14,2.61-22.47,0C9.57,371.06,16.85,347.12,19.75,340.47Z"/><path id="_Caminho_76" data-name=" Caminho 76" class="cls-35" d="M94.54,180.68c6.31.59,12.42,1,18,1.2l8.29-19.9c-10.39-1.18-20.2-2.11-26.75-2.69-.07,7.11,0,14.45.41,21.39"/><path id="_Caminho_77" data-name=" Caminho 77" class="cls-36" d="M70.8,213.44s-3.56.18-9.46.23c-.3,5.86-.74,11.63-1.27,17.05,14.27-3.56,21.89-6.32,25.86-12,0-1.18-.06-2.4-.09-3.66A24.92,24.92,0,0,1,75,213.29l-4.07-.3c-.09.27-.16.43-.16.43"/><path id="_Caminho_78" data-name=" Caminho 78" class="cls-36" d="M60.19,168a182.67,182.67,0,0,1,1.67,26.55c3.32.44,6.6.89,9.73,1.36.09.4.16.79.24,1.18l3.33.28a26.41,26.41,0,0,1,9.22-2.14h.81c-.21-5.64-.46-11.82-.77-18.62C83.05,146,78.67,126.32,74.3,114a39.39,39.39,0,0,1,.11,4.86,7.91,7.91,0,0,0-3.17-1.65c.49,1.29,0,3.21-1.72,6.21,2.61,2.17,8.36,19.65,7.39,54.61-1.52,7.82-2.93,8.8-5,4.89s-2.4-4.67-2-10.53,1.08-32.69-3-48.21c-1.69-1.56-3-2.41-3.37-3.61A10.4,10.4,0,0,0,61.15,126c-4.55-1-23.56-8.57-25.51-22.25C33.26,111.12,55.4,137.18,60.18,168"/><path id="_Caminho_79" data-name=" Caminho 79" class="cls-37" d="M2.93,133.29a8.58,8.58,0,0,1,.17-1.44,8.58,8.58,0,0,0-.17,1.44"/><path id="_Caminho_80" data-name=" Caminho 80" class="cls-37" d="M3.9,129.23l.21-.45-.21.45"/><path id="_Caminho_81" data-name=" Caminho 81" class="cls-37" d="M4.32,128.34c.07-.13.15-.26.23-.39-.08.13-.16.26-.23.39"/><path id="_Caminho_82" data-name=" Caminho 82" class="cls-37" d="M3.54,130.15c.06-.17.13-.34.2-.51-.07.17-.14.34-.2.51"/><path id="_Caminho_83" data-name=" Caminho 83" class="cls-37" d="M4.82,127.5l.24-.35-.24.35"/><path id="_Caminho_84" data-name=" Caminho 84" class="cls-38" d="M15,121.91a12.14,12.14,0,0,1,12,10.26c4.19,18.84,1.28,44-1.18,58.86,9.31.86,23.06,2.23,36,3.9a182.67,182.67,0,0,0-1.67-26.55c-4.78-30.83-26.93-56.89-24.54-64.27C25,110.62,8.06,119.71,5.49,126.56a.42.42,0,0,0-.11.15,12.06,12.06,0,0,1,9.65-4.8"/><path id="_Caminho_85" data-name=" Caminho 85" class="cls-37" d="M3.14,131.65a9.41,9.41,0,0,1,.34-1.29,9.41,9.41,0,0,0-.34,1.29"/><path id="_Caminho_86" data-name=" Caminho 86" class="cls-38" d="M53.46,263.49c2.3-1.69,4.91-15.43,6.61-32.77.53-5.42,1-11.19,1.27-17.05-8.63.08-22.29-.1-37.21-1.44a60.72,60.72,0,0,1-2.59,10c-10.42,30-9.56,35.82-9.56,35.82a38.25,38.25,0,0,0,4.22,2.76c7.05,4.06,22,10.39,37.26,2.67"/><path id="_Caminho_87" data-name=" Caminho 87" class="cls-38" d="M93.55,211.56c.4,1.85-3,3.57-7.71,3.9,0,1.26,0,2.48.09,3.66.69,28.91-.28,32.71-.28,32.71q2.26-.71,4.46-1.64c3.18-1.37,6.91-3.5,7.1-6a300.38,300.38,0,0,0-.54-42H96.2c.31,7-.84,8.26-2.65,9.4"/><path id="_Caminho_88" data-name=" Caminho 88" class="cls-38" d="M67.81,100.64h0c4.68,5.82,6.09,10.17,6.49,14,4.37,12.35,8.75,32,10.12,62.6q.47,10.2.77,18.62c6.61-.41,9.44,1,10.55,2.33h.54c-.16-1.42-.33-2.82-.53-4.2-.57-4-1-8.43-1.21-13-.4-6.94-.48-14.28-.41-21.39.12-12.35.72-24,1-31.68.39-11.71-2.77-35-16.83-36.72,0,.75.06,1.53.1,2.36.25,4.53-4,7-10.55,7.1"/><path id="_Caminho_89" data-name=" Caminho 89" class="cls-39" d="M50.8,61.66c-.16,8.46-1.14,17.75-1.14,17.75l-2.29.16s-3.25-10.75-8.14-5.38c-2.93,4.07,2,9.78,4.24,10.75,0,0,21.48,6.84,24.34,15.41,6.54-.13,10.8-2.57,10.55-7.1,0-.83-.07-1.61-.1-2.36-.23-6.77.17-10.8-.26-19.3a35.19,35.19,0,0,0-1.37-16.3c-8.38,6.77-25.83,6.36-25.83,6.36"/><path id="_Caminho_90" data-name=" Caminho 90" class="cls-40" d="M43.47,84.94c-2.28-1-7.17-6.68-4.24-10.75,4.89-5.37,8.14,5.38,8.14,5.38l2.29-.16s1-9.29,1.14-17.75c0,0,17.45.41,25.83-6.36A11.32,11.32,0,0,0,80.77,49c-4.08,0-8.64-6.19-16.62-9.77-7.49-4.89-31.43-6.51-34.69,11.89C26.69,55.79,23.6,72.4,37.6,85.59c2.43,3.24,5.18,7.1,5.23,7.17a34.82,34.82,0,0,0,.64-7.82"/><path id="_Caminho_91" data-name=" Caminho 91" class="cls-39" d="M64.21,115l.58.94a2.76,2.76,0,0,1,2.5-.69l-.37-1.11c1.84-2.39,1.74-8,.89-13.74h0C65,91.79,43.47,85,43.47,85a34.24,34.24,0,0,1-.64,7.82,16.51,16.51,0,0,1-2.29,5.81s-3,8.58,23.67,16.39"/><path id="_Caminho_92" data-name=" Caminho 92" class="cls-41" d="M63.77,118.11a3.88,3.88,0,0,1,1-2.21l-.58-.94c-1.63,4.24-3.15,7.5-3,11.4a10.4,10.4,0,0,1,2.39-5.45,4,4,0,0,1,.22-2.8"/><path id="_Caminho_93" data-name=" Caminho 93" class="cls-41" d="M66.92,114.1l.37,1.1.5.09c1.76.43,3,1.07,3.45,2.26a7.72,7.72,0,0,1,3.17,1.65c-2.06-3.69-7.49-5.1-7.49-5.1"/><path id="_Caminho_94" data-name=" Caminho 94" class="cls-40" d="M67.79,115.29l-.5-.09a2.8,2.8,0,0,0-2.5.7,3.88,3.88,0,0,0-1,2.21,4,4,0,0,0-.22,2.8c.42,1.2,1.68,2,3.37,3.61,4.12,15.52,3.47,42.34,3,48.21s-.11,6.62,2,10.53,3.47,2.93,5-4.89c1-35-4.78-52.44-7.39-54.61,1.76-3,2.21-4.92,1.72-6.21s-1.69-1.83-3.45-2.26"/><path id="_Caminho_95" data-name=" Caminho 95" class="cls-16" d="M66.92,114.1s5.43,1.41,7.49,5.1a39.39,39.39,0,0,0-.11-4.86c-.4-3.81-1.81-8.16-6.49-14,.85,5.7,1,11.35-.89,13.74"/><path id="_Caminho_96" data-name=" Caminho 96" class="cls-16" d="M61.16,126.36c-.1-3.9,1.42-7.16,3-11.4-26.72-7.81-23.67-16.39-23.67-16.39s-3.8,1.85-4.89,5.54c2,13.68,21,21.28,25.51,22.25"/><path id="_Caminho_97" data-name=" Caminho 97" class="cls-42" d="M4.93,206.7c-.08-.12-.17-.23-.24-.35.07.12.16.23.24.35"/><path id="_Caminho_98" data-name=" Caminho 98" class="cls-42" d="M5.51,207.42c-.1-.12-.2-.23-.29-.35.09.12.19.23.29.35"/><path id="_Caminho_99" data-name=" Caminho 99" class="cls-42" d="M4.41,205.93c-.07-.11-.12-.23-.19-.35.07.12.12.24.19.35"/><path id="_Caminho_100" data-name=" Caminho 100" class="cls-42" d="M12,210.9l-.6-.1.6.1"/><path id="_Caminho_101" data-name=" Caminho 101" class="cls-42" d="M4,205.12l-.15-.33.15.33"/><path id="_Caminho_102" data-name=" Caminho 102" class="cls-42" d="M3.6,204.29a.74.74,0,0,0-.1-.27.74.74,0,0,0,.1.27"/><path id="_Caminho_103" data-name=" Caminho 103" class="cls-42" d="M6.14,208.08l-.32-.33.32.33"/><path id="_Caminho_104" data-name=" Caminho 104" class="cls-42" d="M11,210.72l-.56-.14.56.14"/><path id="_Caminho_105" data-name=" Caminho 105" class="cls-42" d="M7.59,209.23a4.21,4.21,0,0,1-.41-.28,4.21,4.21,0,0,0,.41.28"/><path id="_Caminho_106" data-name=" Caminho 106" class="cls-42" d="M6.84,208.69l-.37-.31.37.31"/><path id="_Caminho_107" data-name=" Caminho 107" class="cls-42" d="M10.11,210.47l-.52-.18.52.19"/><path id="_Caminho_108" data-name=" Caminho 108" class="cls-42" d="M9.22,210.13l-.47-.22.47.22"/><path id="_Caminho_109" data-name=" Caminho 109" class="cls-42" d="M8.38,209.72l-.44-.26.44.26"/><path id="_Caminho_110" data-name=" Caminho 110" class="cls-43" d="M127.46,146.21c9.15-5.32,41.44-24,45.65-26.5Z"/><path id="_Caminho_111" data-name=" Caminho 111" class="cls-32" d="M159.26,174.93l-14.7,8.46a5.13,5.13,0,0,0,.21.74c-1,1.62-.76,4.77,2,5.32a4.33,4.33,0,0,0,2.67-.63c3.25-1.73,7.12-6.59,8.95-11a15,15,0,0,0,.86-2.69v-.24"/><path id="_Caminho_112" data-name=" Caminho 112" class="cls-32" d="M96,198.19h-.26l-10.55-2h-1a25.18,25.18,0,0,0-8.83,2.05l1.45.11A7.41,7.41,0,0,1,84.21,206a7.64,7.64,0,0,1-7.76,7.23h-.86l-1,0a25.73,25.73,0,0,0,11.18,1.76c4.87-.34,8.38-2.06,8-4,1.87-1.18,3.1-2.48,2.73-9.71h.13a56.31,56.31,0,0,0,8.07-1l1.27-3.06c-3-.19-7.65.14-9.73.22"/><path id="_Caminho_113" data-name=" Caminho 113" class="cls-32" d="M71,212.85l4,.28.9.06h.49a7.91,7.91,0,0,0,7.91-6.6,7.75,7.75,0,0,0-7.66-8.9l-1.51-.12-3.33-.28a31,31,0,0,1-.8,15.56"/><path id="_Caminho_composto_" data-name=" Caminho composto " class="cls-35" d="M3.07,202.42A11.21,11.21,0,0,0,3.5,204a.74.74,0,0,0,.1.27c0,.09.14.35.22.52l.15.33c.08.16.16.31.25.46s.12.24.19.35l.28.42.24.35c.09.13.2.25.29.37s.19.23.29.35.2.22.31.33l.32.33.33.3.37.31.34.26a4.21,4.21,0,0,0,.41.28l.35.23.44.26.37.19.47.22.37.15.52.19.36.11.57.14.36.08.6.39h.28c4,.23,8,.65,11.85,1,14.91,1.34,28.58,1.52,37.21,1.44,5.9,0,9.46-.23,9.46-.23s.07-.16.17-.43a30.93,30.93,0,0,0,.85-15.54c-.07-.39-.14-.78-.23-1.18-3.13-.47-6.41-.92-9.73-1.36-13-1.67-26.71-3-36-3.9,2.46-14.88,5.37-40,1.18-58.86A12.12,12.12,0,0,0,5.4,126.67c-.11.14-.22.29-.32.44l-.24.35-.27.45-.23.39-.21.44-.21.45a2.05,2.05,0,0,0-.16.41c-.07.17-.14.34.24.51v.08H4c-.44,0-.44.08-.44.12-.12.42-.24.85-.33,1.29v.18A5.17,5.17,0,0,0,3,133.29v.12C1.27,142.82-2.81,172,3.07,202.42Zm.65-6A10.51,10.51,0,0,1,13.4,190h0A10.51,10.51,0,0,0,3.72,196.4Z"/></g><g id="_Grupo_14" data-name=" Grupo 14"><path id="_Caminho_114" data-name=" Caminho 114" class="cls-44" d="M160,172.85a1,1,0,0,0,0-.25l-.05-1.15-.71.09a4,4,0,0,0-.44-.27l-32.24-17a5.25,5.25,0,0,0-4.76,0L77.46,182.12l-1.46.19v1.43h0a2,2,0,0,0,1.27,1.51l32.23,17a5.32,5.32,0,0,0,4.76,0l45-28.32a1.4,1.4,0,0,0,.75-1.14Z"/><path id="_Caminho_115" data-name=" Caminho 115" class="cls-45" d="M159.46,172.45,114.25,200.9a5.32,5.32,0,0,1-4.79,0L77.07,183.79c-1.45-.75-1.66-2-.45-2.74l45.2-28.46a5.32,5.32,0,0,1,4.79,0l32.4,17.1c1.44.75,1.64,2,.45,2.74"/><path id="_Caminho_116" data-name=" Caminho 116" class="cls-46" d="M119.49,167.73l-11.89,7.48a1.38,1.38,0,0,1-1.25,0l-8.52-4.49c-.39-.2-.44-.53-.13-.73l11.89-7.48a1.4,1.4,0,0,1,1.26,0l8.52,4.5c.38.2.43.52.12.72"/><path id="_Caminho_117" data-name=" Caminho 117" class="cls-47" d="M142.75,181.13l-26.39,16.62a3.13,3.13,0,0,1-2.8,0l-18.93-10c-.83-.45-.95-1.17-.26-1.61l26.4-16.62a3.13,3.13,0,0,1,2.8,0l18.92,10c.85.44,1,1.16.26,1.6"/><path id="_Caminho_118" data-name=" Caminho 118" class="cls-48" d="M166.5,125.48l-1-.66h0a1.07,1.07,0,0,0-1.24.12l-44.88,28.25a7.24,7.24,0,0,0-2.61,4.65l-5.59,40.72a2.31,2.31,0,0,0,.37,2h0l.12.07.13.09.79.51.66-.93,44.52-28a7.38,7.38,0,0,0,2.61-4.65L166,126.88a4.12,4.12,0,0,0,.05-.7Z"/><path id="_Caminho_119" data-name=" Caminho 119" class="cls-44" d="M158.77,172.91,113.9,201.16c-1.19.74-2-.13-1.71-1.94l5.59-40.72a7.29,7.29,0,0,1,2.61-4.66l44.88-28.24c1.18-.75,1.95.13,1.7,1.94l-5.59,40.75a7.33,7.33,0,0,1-2.61,4.65"/><path id="_Caminho_120" data-name=" Caminho 120" class="cls-16" d="M144.65,164.21c-2.11,2.61-4.92,3.84-6.29,2.73s-.76-4.11,1.35-6.72,4.92-3.83,6.29-2.73.75,4.11-1.35,6.72"/></g></g></g></g></g></g></g></svg>